<?xml version="1.0" encoding="UTF-8" standalone="no"?>
<!-- Creator: fig2dev Version 3.2 Patchlevel 5e -->

<!-- CreationDate: Sat Dec 12 14:16:06 2015 -->

<!-- Magnification: 1.050 -->

<svg
   xmlns:dc="http://purl.org/dc/elements/1.1/"
   xmlns:cc="http://creativecommons.org/ns#"
   xmlns:rdf="http://www.w3.org/1999/02/22-rdf-syntax-ns#"
   xmlns:svg="http://www.w3.org/2000/svg"
   xmlns="http://www.w3.org/2000/svg"
   xmlns:sodipodi="http://sodipodi.sourceforge.net/DTD/sodipodi-0.dtd"
   xmlns:inkscape="http://www.inkscape.org/namespaces/inkscape"
   width="394.8815"
   height="336.48828"
   viewBox="692 79 5259.6016 4467.0484"
   id="svg2"
   version="1.1"
   inkscape:version="0.92.2 (5c3e80d, 2017-08-06)"
   sodipodi:docname="Ellipsoide.svg"
   inkscape:export-filename="/home/javier/CARTO/2018-1/apunte-datum/imgs/ellipsoide.png"
   inkscape:export-xdpi="150.12349"
   inkscape:export-ydpi="150.12349">
  <metadata
     id="metadata260">
    <rdf:RDF>
      <cc:Work
         rdf:about="">
        <dc:format>image/svg+xml</dc:format>
        <dc:type
           rdf:resource="http://purl.org/dc/dcmitype/StillImage" />
        <dc:title></dc:title>
      </cc:Work>
    </rdf:RDF>
  </metadata>
  <defs
     id="defs258" />
  <sodipodi:namedview
     pagecolor="#ffffff"
     bordercolor="#666666"
     borderopacity="1"
     objecttolerance="10"
     gridtolerance="10"
     guidetolerance="10"
     inkscape:pageopacity="0"
     inkscape:pageshadow="2"
     inkscape:window-width="1360"
     inkscape:window-height="715"
     id="namedview256"
     showgrid="false"
     units="mm"
     fit-margin-top="4"
     fit-margin-left="4"
     fit-margin-right="4"
     fit-margin-bottom="4"
     inkscape:zoom="0.49599983"
     inkscape:cx="194.00307"
     inkscape:cy="320.38298"
     inkscape:window-x="0"
     inkscape:window-y="24"
     inkscape:window-maximized="1"
     inkscape:current-layer="svg2" />
  <polyline
     id="polyline8"
     style="fill:#ffffff;stroke:#000000;stroke-width:16;stroke-linecap:butt;stroke-linejoin:round"
     points="5439,7072 5439,7021 5435,6965 5429,6913 5420,6860 5412,6809 5396,6752 5382,6700 5363,6648 5344,6596 5327,6549 5297,6497 5274,6445 5246,6397 5212,6346 5185,6298 5146,6250 5108,6204 5070,6161 5034,6114 4991,6072 4943,6029 4896,5987 4849,5949 4796,5906 4749,5868 4693,5830 4641,5798 4584,5760 4522,5727 4467,5694 4405,5665 4343,5637 4282,5609 4216,5580 4150,5556 4083,5533 4017,5509 3946,5491 3876,5471 3809,5453 3733,5439 3664,5424 3592,5409 3522,5401 3445,5391 3375,5382 3299,5377 3224,5372 3152,5372 3078,5367 3001,5372 2931,5372 2855,5377 2780,5382 2708,5391 2634,5401 2562,5409 2491,5424 2420,5439 2345,5453 2279,5471 2208,5491 2137,5509 2071,5533 2005,5556 1939,5580 1872,5609 1812,5637 1750,5665 1689,5694 1631,5727 1570,5760 1513,5798 1461,5830 1404,5868 1357,5906 1306,5949 1258,5987 1211,6029 1164,6072 1122,6114 1083,6161 1045,6204 1008,6250 971,6298 941,6346 909,6397 880,6445 856,6497 828,6549 809,6596 790,6648 771,6700 758,6752 743,6809 734,6860 724,6913 720,6965 716,7021 716,7072 716,7125 720,7182 724,7234 734,7286 743,7338 758,7394 771,7446 790,7498 809,7550 828,7597 856,7650 880,7701 909,7749 941,7801 971,7848 1008,7895 1045,7942 1083,7985 1122,8032 1164,8075 1211,8117 1258,8160 1306,8198 1357,8240 1404,8278 1461,8316 1513,8349 1570,8387 1631,8419 1689,8453 1750,8480 1812,8509 1872,8538 1939,8565 2005,8590 2071,8613 2137,8637 2208,8656 2279,8675 2345,8693 2420,8708 2491,8722 2562,8735 2634,8746 2708,8754 2780,8765 2855,8769 2931,8774 3001,8774 3078,8779 3152,8774 3224,8774 3299,8769 3375,8765 3445,8754 3522,8746 3592,8735 3664,8722 3733,8708 3809,8693 3876,8675 3946,8656 4017,8637 4083,8613 4150,8590 4216,8565 4282,8538 4343,8509 4405,8480 4467,8453 4522,8419 4584,8387 4641,8349 4693,8316 4749,8278 4796,8240 4849,8198 4896,8160 4943,8117 4991,8075 5034,8032 5070,7985 5108,7942 5146,7895 5185,7848 5212,7801 5246,7749 5274,7701 5297,7650 5327,7597 5344,7550 5363,7498 5382,7446 5396,7394 5412,7338 5420,7286 5429,7234 5435,7182 5439,7125 5439,7072 "
     transform="translate(37.277772,-4294.4156)" />
  <polyline
     id="polyline12"
     style="fill:none;stroke:#000000;stroke-width:8;stroke-linecap:butt;stroke-linejoin:round"
     points="3804,5453 3781,5448 3757,5443 3738,5443 3711,5443 3687,5448 3664,5453 3639,5457 3611,5462 3583,5471 3560,5481 3530,5495 3502,5509 3475,5524 3441,5538 3413,5556 3384,5575 3356,5598 3322,5617 3294,5641 3261,5670 3233,5694 3201,5722 3171,5750 3139,5783 3105,5817 3078,5849 3044,5883 3012,5916 2982,5954 2950,5991 2921,6029 2889,6072 2860,6109 2827,6152 2798,6194 2765,6237 2738,6284 2708,6327 2680,6374 2653,6420 2623,6468 2596,6516 2567,6563 2543,6615 2515,6662 2491,6709 2464,6761 2439,6813 2415,6860 2392,6913 2368,6965 2349,7016 2326,7068 2307,7116 2288,7168 2269,7219 2250,7272 2232,7323 2217,7371 2203,7423 2190,7470 2175,7522 2160,7569 2146,7620 2137,7668 2128,7716 2118,7763 2109,7805 2104,7853 2094,7895 2090,7942 2086,7985 2086,8028 2080,8065 2080,8108 2080,8145 2080,8183 2080,8221 2086,8254 2086,8291 2090,8325 2094,8358 2104,8387 2109,8415 2118,8443 2128,8472 2137,8495 2152,8523 2160,8542 2175,8565 2190,8585 2203,8604 2217,8618 2237,8637 2250,8650 2269,8661 2288,8670 2307,8679 2330,8689 2349,8693 "
     transform="translate(37.277772,-4294.4156)" />
  <polyline
     id="polyline18"
     style="fill:none;stroke:#000000;stroke-width:8;stroke-linecap:butt;stroke-linejoin:round;stroke-dasharray:62, 31, 10, 31"
     points="3078,7072 3078,4413 "
     transform="translate(37.277772,-4294.4156)" />
  <polyline
     id="polyline20"
     style="fill:#999999;stroke:#666666;stroke-width:39.95832825;stroke-linecap:butt;stroke-linejoin:miter;stroke-miterlimit:4;stroke-dasharray:none"
     points="3079,7088 3079,5858 "
     transform="translate(37.277772,-4294.4156)" />
  <polyline
     id="polyline22"
     style="fill:none;stroke:#000000;stroke-width:8;stroke-linecap:butt;stroke-linejoin:round"
     points="2935,5372 2940,5372 2945,5377 2950,5382 2954,5386 2959,5391 2963,5401 2969,5409 2974,5424 2982,5439 2987,5453 2993,5471 2996,5491 3006,5509 3012,5533 3016,5556 3025,5580 3030,5609 3035,5632 3044,5665 3048,5694 3054,5727 3063,5760 3067,5793 3072,5830 3082,5868 3086,5906 3091,5944 3101,5987 3105,6024 3116,6067 3120,6114 3124,6157 3134,6204 3139,6246 3143,6293 3148,6346 3158,6393 3163,6439 3167,6492 3171,6539 3182,6591 3185,6643 3190,6695 3195,6747 3201,6798 3205,6856 3209,6908 3214,6960 3219,7012 3224,7068 3228,7120 3233,7172 3237,7229 3243,7280 3248,7333 3248,7385 3252,7437 3256,7489 3261,7541 3261,7593 3267,7645 3267,7692 3271,7743 3271,7791 3275,7839 3275,7886 3275,7933 3280,7980 3280,8023 3280,8065 3280,8108 3280,8150 3286,8193 3286,8230 3286,8272 3286,8306 3280,8344 3280,8376 3280,8415 3280,8443 3280,8476 3275,8504 3275,8533 3275,8561 3271,8585 3271,8608 3267,8632 3267,8650 3261,8670 3256,8689 3256,8703 3252,8717 3248,8731 3248,8741 3243,8750 3237,8760 3233,8765 3228,8769 3224,8774 3219,8774 "
     transform="translate(37.277772,-4294.4156)" />
  <polyline
     id="polyline24"
     style="fill:none;stroke:#000000;stroke-width:8;stroke-linecap:butt;stroke-linejoin:round;stroke-dasharray:62, 31, 10, 31"
     points="3078,7072 1778,8467 "
     transform="translate(37.277772,-4294.4156)" />
  <polyline
     id="polyline26"
     style="fill:none;stroke:#000000;stroke-width:8;stroke-linecap:butt;stroke-linejoin:round"
     points="1117,6123 1145,6095 1173,6067 1206,6038 1239,6015 1277,5991 1315,5968 1353,5944 1391,5925 1434,5902 1480,5883 1523,5864 1570,5849 1623,5835 1670,5821 1721,5807 1774,5798 1830,5783 1882,5774 1939,5769 1995,5760 2056,5755 2113,5750 2175,5750 2237,5750 2298,5750 2364,5750 2426,5750 2491,5755 2557,5760 2623,5769 2689,5774 2756,5783 2823,5793 2889,5807 2954,5821 3020,5835 3086,5849 3158,5864 3224,5883 3290,5902 3356,5920 3422,5944 3488,5963 3554,5987 3620,6015 3687,6038 3749,6067 3815,6091 3876,6119 3938,6152 3998,6180 4059,6213 4116,6242 4178,6275 4235,6308 4291,6346 4343,6379 4401,6417 4452,6454 4504,6487 4552,6524 4598,6563 4645,6605 4693,6643 4735,6681 4779,6724 4815,6761 4853,6804 4891,6841 4924,6883 4957,6927 4991,6969 5018,7007 5047,7049 5070,7091 5095,7134 5119,7176 5138,7215 5156,7257 5170,7300 5185,7343 5193,7380 5204,7423 5207,7461 5212,7503 5217,7541 5217,7579 5217,7616 5212,7654 5207,7692 5198,7730 5189,7763 5180,7801 5165,7834 5146,7867 5127,7900 5108,7933 5089,7966 5061,7994 5038,8023 "
     transform="translate(37.277772,-4294.4156)" />
  <polyline
     id="polyline32"
     style="fill:none;stroke:#000000;stroke-width:8;stroke-linecap:butt;stroke-linejoin:round"
     points="785,6653 801,6615 819,6582 838,6543 856,6511 880,6473 904,6439 933,6407 960,6374 994,6341 1026,6312 1064,6279 1102,6250 1141,6223 1183,6194 1226,6165 1268,6143 1315,6114 1367,6091 1415,6067 1466,6043 1523,6024 1574,6001 1631,5982 1693,5963 1750,5949 1812,5930 1872,5916 1934,5902 2001,5891 2067,5878 2133,5868 2198,5859 2269,5849 2335,5845 2406,5840 2477,5835 2549,5830 2619,5830 2689,5830 2761,5830 2836,5830 2908,5835 2982,5840 3054,5845 3129,5849 3201,5859 3271,5868 3346,5878 3417,5887 3488,5902 3564,5916 3634,5930 3706,5944 3772,5963 3842,5982 3913,6001 3980,6019 4046,6043 4112,6067 4178,6091 4239,6114 4305,6138 4367,6165 4424,6190 4486,6218 4541,6250 4598,6279 4650,6308 4707,6341 4760,6374 4806,6407 4853,6439 4900,6473 4943,6506 4985,6539 5028,6577 5066,6615 5104,6648 5138,6686 5170,6724 5204,6761 5231,6798 5259,6837 5283,6875 5302,6917 5327,6955 5340,6993 5359,7030 5374,7072 5382,7111 5393,7149 5396,7187 5401,7229 5401,7267 5401,7304 5401,7343 5396,7380 5387,7418 5378,7456 5369,7493 "
     transform="translate(37.277772,-4294.4156)" />
  <polyline
     id="polyline38"
     style="fill:none;stroke:#000000;stroke-width:8;stroke-linecap:butt;stroke-linejoin:round"
     points="734,7286 729,7248 724,7210 724,7172 724,7134 729,7091 734,7054 743,7016 752,6979 767,6941 782,6902 801,6860 819,6823 843,6785 867,6752 894,6713 923,6676 952,6639 984,6605 1017,6567 1056,6535 1093,6497 1135,6464 1179,6431 1226,6397 1268,6365 1319,6335 1367,6303 1419,6275 1471,6246 1527,6218 1585,6190 1641,6161 1702,6138 1763,6114 1825,6091 1886,6067 1952,6043 2019,6024 2086,6005 2152,5987 2217,5968 2288,5954 2360,5934 2430,5920 2500,5906 2572,5897 2647,5887 2719,5878 2793,5868 2865,5859 2940,5854 3012,5849 3086,5845 3163,5845 3233,5840 3309,5840 3379,5845 3456,5845 3526,5849 3602,5854 3672,5859 3743,5868 3815,5872 3885,5883 3951,5897 4023,5906 4089,5920 4154,5934 4220,5949 4282,5968 4348,5982 4409,6001 4467,6024 4528,6043 4584,6067 4641,6086 4693,6109 4749,6138 4796,6161 4849,6190 4896,6213 4943,6242 4985,6270 5028,6303 5070,6331 5108,6365 5142,6397 5180,6431 5212,6464 5241,6497 5270,6530 5293,6563 5316,6601 5340,6639 5359,6671 5378,6709 5393,6747 5401,6785 5412,6823 5420,6860 "
     transform="translate(37.277772,-4294.4156)" />
  <polyline
     id="polyline44"
     style="fill:none;stroke:#000000;stroke-width:8;stroke-linecap:butt;stroke-linejoin:round"
     points="984,7867 965,7834 941,7801 923,7763 909,7730 894,7697 886,7659 875,7620 867,7588 861,7550 856,7512 856,7470 856,7432 861,7394 867,7357 875,7314 886,7276 899,7234 913,7196 928,7154 946,7116 971,7072 994,7030 1017,6993 1045,6950 1075,6913 1102,6870 1135,6832 1173,6790 1206,6752 1245,6713 1287,6671 1330,6634 1372,6596 1419,6558 1466,6520 1513,6487 1565,6450 1617,6417 1670,6379 1727,6346 1778,6312 1835,6279 1897,6250 1952,6218 2014,6190 2075,6161 2141,6133 2203,6104 2269,6076 2335,6053 2402,6029 2468,6005 2534,5982 2600,5963 2671,5939 2738,5920 2807,5902 2878,5887 2945,5872 3016,5859 3086,5845 3158,5830 3224,5821 3294,5812 3365,5802 3432,5798 3502,5793 3568,5787 3639,5783 3706,5783 3772,5779 3838,5783 3904,5783 3965,5787 4031,5793 4093,5798 4154,5802 4216,5812 4272,5821 4333,5830 4390,5845 4443,5859 4499,5872 4552,5887 4603,5906 4656,5920 4702,5939 4749,5963 4792,5982 4834,6005 4877,6029 4919,6053 4957,6076 4991,6104 5028,6133 5057,6161 5089,6190 5119,6218 5146,6250 5170,6279 "
     transform="translate(37.277772,-4294.4156)" />
  <polyline
     id="polyline50"
     style="fill:none;stroke:#000000;stroke-width:8;stroke-linecap:butt;stroke-linejoin:round"
     points="1415,8283 1385,8259 1357,8235 1330,8212 1306,8183 1282,8160 1258,8131 1239,8098 1220,8070 1206,8037 1192,8004 1179,7971 1168,7938 1160,7905 1149,7867 1145,7828 1145,7791 1141,7754 1145,7716 1145,7678 1149,7635 1154,7597 1164,7554 1173,7512 1187,7470 1202,7428 1215,7385 1234,7343 1253,7300 1277,7257 1300,7210 1324,7168 1349,7125 1376,7083 1409,7035 1438,6993 1471,6950 1508,6902 1546,6860 1585,6817 1623,6775 1660,6733 1702,6690 1750,6648 1793,6605 1839,6563 1886,6524 1934,6482 1985,6445 2033,6402 2086,6365 2137,6327 2194,6289 2245,6256 2302,6218 2360,6185 2415,6152 2472,6119 2530,6086 2591,6057 2647,6024 2708,5996 2770,5968 2827,5944 2889,5916 2950,5891 3012,5868 3072,5849 3129,5826 3190,5807 3252,5787 3313,5774 3375,5755 3432,5741 3493,5727 3549,5717 3611,5708 3668,5698 3724,5689 3781,5683 3838,5679 3895,5675 3951,5670 4004,5670 4055,5670 4108,5675 4159,5675 4212,5679 4259,5689 4305,5694 4352,5702 4395,5713 4443,5727 4486,5736 4522,5750 4565,5769 4603,5783 4641,5802 4675,5821 4707,5840 4741,5864 "
     transform="translate(37.277772,-4294.4156)" />
  <polyline
     id="polyline56"
     style="fill:none;stroke:#000000;stroke-width:8;stroke-linecap:butt;stroke-linejoin:round"
     points="1891,8546 1859,8533 1830,8519 1806,8500 1778,8486 1754,8467 1735,8443 1712,8424 1693,8401 1674,8376 1655,8349 1641,8325 1627,8297 1612,8268 1598,8235 1589,8207 1580,8174 1574,8136 1565,8102 1565,8070 1561,8032 1561,7994 1561,7956 1561,7913 1565,7876 1570,7834 1574,7791 1585,7749 1589,7706 1604,7664 1612,7616 1627,7574 1641,7527 1660,7479 1674,7437 1693,7390 1716,7343 1735,7295 1759,7248 1782,7201 1812,7149 1839,7102 1867,7054 1897,7007 1924,6960 1958,6913 1990,6865 2024,6817 2056,6771 2094,6724 2133,6676 2171,6628 2208,6586 2245,6539 2288,6497 2330,6450 2368,6407 2411,6365 2458,6322 2500,6279 2543,6242 2591,6199 2634,6161 2680,6123 2727,6086 2774,6053 2823,6015 2870,5982 2916,5949 2963,5916 3012,5887 3059,5859 3105,5830 3152,5802 3201,5774 3248,5750 3294,5727 3341,5708 3390,5683 3437,5665 3483,5651 3526,5632 3573,5617 3620,5604 3664,5590 3706,5580 3749,5571 3791,5566 3834,5556 3876,5552 3913,5552 3956,5547 3993,5547 4031,5552 4065,5552 4102,5556 4135,5561 4169,5571 4201,5580 4235,5590 4263,5598 "
     transform="translate(37.277772,-4294.4156)" />
  <polyline
     id="polyline62"
     style="fill:none;stroke:#000000;stroke-width:8;stroke-linecap:butt;stroke-linejoin:round"
     points="1891,8546 1939,8565 1985,8585 2033,8599 2080,8618 2128,8632 2179,8646 2232,8661 2283,8670 2335,8684 2387,8693 2445,8708 2496,8717 2553,8722 2609,8731 2666,8741 2722,8746 2780,8750 2836,8754 2893,8754 2954,8760 3012,8760 3067,8760 3124,8760 3185,8760 3243,8760 3299,8754 3356,8750 3413,8746 3469,8741 3526,8735 3583,8727 3639,8717 3696,8708 3749,8698 3800,8689 3857,8675 3908,8665 3961,8650 4007,8637 4059,8623 4108,8604 4154,8590 4201,8571 4263,8546 "
     transform="translate(37.277772,-4294.4156)" />
  <polyline
     id="polyline68"
     style="fill:none;stroke:#000000;stroke-width:8;stroke-linecap:butt;stroke-linejoin:round"
     points="1192,8098 1226,8127 1258,8155 1291,8183 1330,8212 1367,8240 1409,8268 1453,8291 1495,8316 1542,8344 1589,8368 1636,8391 1689,8410 1740,8434 1793,8453 1844,8472 1901,8490 1958,8509 2014,8528 2071,8542 2133,8557 2194,8576 2250,8585 2317,8599 2379,8608 2439,8623 2506,8632 2572,8637 2634,8646 2700,8650 2765,8661 2831,8661 2897,8665 2963,8670 3035,8670 3101,8670 3167,8670 3233,8665 3299,8665 3365,8661 3432,8656 3498,8650 3564,8642 3630,8632 3691,8623 3757,8613 3819,8604 3880,8590 3942,8576 4004,8565 4065,8546 4121,8533 4178,8514 4235,8500 4291,8480 4348,8461 4401,8438 4452,8419 4499,8396 4552,8372 4598,8349 4645,8325 4688,8301 4730,8272 4773,8249 4811,8221 4849,8193 4887,8165 4919,8136 4962,8098 "
     transform="translate(37.277772,-4294.4156)" />
  <polyline
     id="polyline74"
     style="fill:none;stroke:#000000;stroke-width:8;stroke-linecap:butt;stroke-linejoin:round"
     points="828,7597 848,7635 867,7668 890,7701 913,7739 937,7772 965,7805 994,7839 1026,7871 1060,7905 1098,7933 1135,7966 1173,7994 1215,8023 1258,8051 1306,8079 1353,8108 1400,8136 1453,8160 1504,8187 1556,8212 1612,8235 1670,8259 1727,8278 1787,8301 1844,8320 1905,8339 1971,8358 2033,8372 2099,8391 2165,8405 2232,8419 2302,8429 2368,8443 2439,8453 2506,8461 2576,8472 2647,8476 2719,8486 2793,8490 2865,8490 2935,8495 3006,8495 3082,8500 3152,8495 3224,8495 3299,8490 3371,8490 3441,8480 3511,8476 3583,8472 3653,8461 3724,8453 3791,8443 3861,8429 3927,8415 3993,8401 4059,8387 4127,8372 4187,8354 4254,8334 4316,8316 4376,8297 4433,8278 4490,8254 4546,8230 4603,8207 4656,8183 4707,8160 4760,8131 4806,8108 4853,8079 4900,8051 4943,8023 4985,7994 5023,7961 5061,7933 5100,7900 5132,7867 5161,7834 5193,7801 5223,7767 5246,7735 5270,7701 5289,7664 5308,7631 5327,7597 "
     transform="translate(37.277772,-4294.4156)" />
  <polyline
     id="polyline80"
     style="fill:none;stroke:#000000;stroke-width:8;stroke-linecap:butt;stroke-linejoin:round"
     points="716,7072 716,7111 720,7149 724,7187 734,7219 743,7257 758,7295 771,7333 790,7365 809,7404 828,7437 856,7475 880,7508 909,7541 941,7574 971,7607 1008,7639 1045,7673 1083,7706 1122,7739 1164,7767 1211,7796 1258,7824 1306,7853 1357,7881 1404,7909 1461,7933 1513,7961 1570,7985 1631,8009 1689,8028 1750,8051 1812,8070 1872,8089 1939,8108 2005,8127 2071,8141 2137,8155 2208,8169 2279,8183 2345,8198 2420,8207 2491,8216 2562,8226 2634,8235 2708,8240 2780,8245 2855,8249 2931,8254 3001,8254 3078,8254 3152,8254 3224,8254 3299,8249 3375,8245 3445,8240 3522,8235 3592,8226 3664,8216 3733,8207 3809,8198 3876,8183 3946,8169 4017,8155 4083,8141 4150,8127 4216,8108 4282,8089 4343,8070 4405,8051 4467,8028 4522,8009 4584,7985 4641,7961 4693,7933 4749,7909 4796,7881 4849,7853 4896,7824 4943,7796 4991,7767 5034,7739 5070,7706 5108,7673 5146,7639 5185,7607 5212,7574 5246,7541 5274,7508 5297,7475 5327,7437 5344,7404 5363,7365 5382,7333 5396,7295 5412,7257 5420,7219 5429,7187 5435,7149 5439,7111 5439,7072 "
     transform="translate(37.277772,-4294.4156)" />
  <polyline
     id="polyline88"
     style="fill:none;stroke:#000000;stroke-width:8;stroke-linecap:butt;stroke-linejoin:round"
     points="2642,6431 2676,6439 2704,6445 2732,6450 2765,6454 2793,6459 2827,6464 2855,6468 2889,6473 2921,6473 2954,6478 2982,6478 3016,6478 3048,6478 3082,6478 3116,6478 3143,6478 3176,6478 3209,6473 3243,6473 3271,6468 3304,6468 3337,6464 3365,6459 3398,6454 3426,6450 3460,6445 3488,6435 3517,6431 3545,6420 3573,6417 3602,6407 3630,6397 3658,6388 3682,6379 3711,6369 3733,6360 3757,6350 3781,6341 3804,6327 3828,6317 3847,6303 3871,6293 3889,6279 3908,6265 3927,6256 3946,6242 3961,6228 3974,6213 3993,6199 4007,6185 4017,6171 4031,6152 4041,6138 4055,6123 4065,6109 4070,6095 4078,6076 4083,6061 4089,6048 4093,6029 4097,6015 4102,5996 4102,5982 4102,5968 4102,5949 4097,5934 4097,5916 4093,5902 4089,5887 4083,5868 4078,5854 4070,5840 4059,5821 4050,5807 4041,5793 4027,5779 4017,5760 4004,5745 3989,5732 3974,5717 3956,5702 3942,5689 3922,5679 3904,5665 3885,5651 3866,5637 3842,5628 3823,5613 3800,5604 3776,5594 3753,5580 3730,5571 3700,5561 3677,5552 3649,5543 3626,5533 3596,5524 3568,5519 3541,5509 3511,5505 3479,5495 3450,5491 3422,5486 3390,5481 3360,5476 3328,5471 3299,5467 3267,5462 3233,5462 3201,5457 3171,5457 3139,5457 3105,5453 3072,5453 3039,5457 3012,5457 2978,5457 2945,5457 2912,5462 2883,5462 2850,5467 2817,5471 2789,5476 2756,5481 2727,5486 2695,5491 2666,5500 2638,5505 2609,5509 2581,5519 2553,5528 2524,5538 2496,5543 2472,5552 2445,5561 2420,5575 2396,5585 2373,5594 2349,5604 2326,5617 2307,5628 2283,5641 2264,5656 2245,5665 2226,5679 2208,5694 2194,5708 2179,5722 2160,5736 2146,5750 2137,5765 2122,5779 2113,5798 2099,5812 2090,5826 2086,5840 2075,5859 2071,5872 2067,5887 2061,5906 2056,5920 2052,5934 2052,5954 2052,5968 2052,5987 2056,6001 2056,6019 2061,6034 2067,6048 2071,6067 2075,6080 2086,6095 2094,6114 2104,6128 2113,6143 2128,6157 2137,6171 2152,6185 2165,6204 2179,6218 2198,6228 2213,6242 2232,6256 2250,6270 2269,6284 2288,6293 2311,6308 2330,6317 2354,6331 2379,6341 2402,6354 2426,6365 2453,6374 2477,6383 2506,6393 2530,6402 2557,6407 2585,6417 2615,6426 2642,6431 "
     transform="translate(37.277772,-4294.4156)" />
  <polyline
     id="polyline90"
     style="fill:none;stroke:#000000;stroke-width:8;stroke-linecap:butt;stroke-linejoin:round"
     points="2855,6114 2870,6119 2883,6123 2902,6123 2916,6128 2931,6128 2950,6133 2963,6133 2982,6133 2996,6138 3012,6138 3030,6138 3044,6138 3063,6138 3078,6138 3097,6138 3110,6138 3129,6138 3143,6138 3163,6138 3176,6133 3195,6133 3209,6133 3224,6128 3243,6128 3256,6123 3271,6119 3290,6119 3304,6114 3318,6109 3333,6104 3346,6100 3360,6100 3375,6095 3390,6091 3398,6086 3413,6076 3426,6072 3437,6067 3450,6061 3460,6057 3475,6048 3483,6043 3493,6038 3502,6029 3511,6024 3522,6015 3530,6010 3541,6001 3545,5996 3554,5987 3560,5982 3568,5972 3573,5963 3579,5958 3583,5949 3587,5939 3592,5934 3592,5925 3596,5916 3596,5906 3602,5902 3602,5891 3602,5883 3602,5878 3602,5868 3602,5859 3602,5849 3596,5845 3596,5835 3592,5826 3587,5817 3587,5812 3583,5802 3579,5793 3573,5787 3564,5779 3560,5769 3554,5765 3545,5755 3535,5750 3530,5741 3522,5736 3511,5727 3502,5722 3493,5713 3479,5708 3469,5702 3460,5694 3445,5689 3437,5683 3422,5679 3413,5675 3398,5670 3384,5665 3371,5660 3356,5656 3341,5651 3328,5646 3313,5641 3299,5637 3286,5637 3271,5632 3252,5628 3237,5628 3224,5623 3205,5623 3190,5617 3171,5617 3158,5617 3143,5613 3124,5613 3110,5613 3091,5613 3078,5613 3059,5613 3044,5613 3025,5613 3012,5617 2993,5617 2978,5617 2959,5617 2945,5623 2931,5623 2912,5628 2897,5628 2883,5632 2865,5637 2850,5637 2836,5641 2823,5646 2807,5651 2793,5656 2780,5660 2765,5665 2756,5670 2742,5675 2727,5679 2719,5683 2704,5694 2695,5698 2680,5702 2671,5708 2661,5717 2653,5722 2642,5732 2634,5736 2623,5745 2615,5750 2609,5760 2600,5765 2596,5774 2585,5779 2581,5787 2576,5798 2572,5802 2567,5812 2562,5821 2562,5826 2557,5835 2557,5845 2553,5854 2553,5859 2553,5868 2553,5878 2553,5887 2553,5891 2553,5902 2557,5911 2557,5920 2562,5925 2567,5934 2567,5944 2572,5949 2576,5958 2581,5968 2591,5972 2596,5982 2600,5991 2609,5996 2619,6005 2623,6010 2634,6019 2642,6024 2653,6034 2661,6038 2676,6043 2685,6053 2695,6057 2708,6061 2719,6067 2732,6076 2742,6080 2756,6086 2770,6091 2785,6095 2798,6100 2812,6104 2827,6109 2841,6109 2855,6114 "
     transform="translate(37.277772,-4294.4156)" />
  <polyline
     id="polyline94"
     style="fill:none;stroke:#000000;stroke-width:8;stroke-linecap:butt;stroke-linejoin:round"
     points="1778,8467 1910,8391 "
     transform="translate(37.277772,-4294.4156)" />
  <polyline
     id="polyline102"
     style="fill:none;stroke:#000000;stroke-width:8;stroke-linecap:butt;stroke-linejoin:round"
     points="1778,8467 1839,8330 "
     transform="translate(37.277772,-4294.4156)" />
  <polyline
     id="polyline116"
     style="fill:none;stroke:#000000;stroke-width:8;stroke-linecap:butt;stroke-linejoin:round"
     points="5859,7720 5733,7645 "
     transform="translate(37.277772,-4294.4156)" />
  <polyline
     id="polyline140"
     style="fill:none;stroke:#000000;stroke-width:8;stroke-linecap:butt;stroke-linejoin:round"
     points="5859,7720 5713,7735 "
     transform="translate(37.277772,-4294.4156)" />
  <polyline
     id="polyline152"
     style="fill:none;stroke:#000000;stroke-width:8;stroke-linecap:butt;stroke-linejoin:round;stroke-dasharray:62, 31, 10, 31"
     points="3078,7072 5859,7720 "
     transform="translate(37.277772,-4294.4156)" />
  <polyline
     id="polyline156"
     style="fill:none;stroke:#000000;stroke-width:8;stroke-linecap:butt;stroke-linejoin:round"
     points="3078,4413 3030,4555 "
     transform="translate(37.277772,-4294.4156)" />
  <polyline
     id="polyline170"
     style="fill:none;stroke:#000000;stroke-width:8;stroke-linecap:butt;stroke-linejoin:round"
     points="3078,4413 3124,4555 "
     transform="translate(37.277772,-4294.4156)" />
  <polyline
     id="polyline196"
     style="fill:none;stroke:#666666;stroke-width:39.95832825;stroke-linecap:butt;stroke-linejoin:miter;stroke-miterlimit:4;stroke-dasharray:none"
     points="2082,8154 3079,7083 5227,7576 "
     transform="translate(37.277772,-4294.4156)" />
  <polyline
     id="polyline198"
     style="fill:none;stroke:#000000;stroke-width:8;stroke-linecap:butt;stroke-linejoin:round"
     points="3365,5382 3356,5382 3346,5382 3337,5386 3322,5391 3313,5401 3304,5406 3294,5420 3280,5428 3271,5443 3261,5457 3248,5471 3237,5491 3224,5509 3209,5533 3201,5556 3185,5580 3176,5604 3163,5632 3148,5660 3139,5689 3124,5722 3110,5755 3097,5787 3086,5821 3072,5859 3059,5897 3048,5934 3035,5976 3020,6015 3006,6057 2996,6100 2982,6146 2969,6190 2959,6237 2945,6284 2935,6331 2921,6379 2912,6426 2897,6478 2889,6524 2874,6577 2865,6628 2855,6681 2841,6733 2831,6785 2823,6837 2812,6889 2804,6941 2793,6993 2785,7049 2774,7102 2765,7154 2756,7205 2751,7257 2742,7314 2738,7365 2727,7418 2722,7470 2713,7522 2708,7569 2704,7620 2700,7673 2695,7720 2689,7767 2685,7820 2680,7867 2680,7909 2676,7956 2676,8004 2671,8046 2671,8089 2666,8131 2666,8174 2666,8212 2666,8249 2666,8287 2666,8325 2671,8358 2671,8391 2671,8424 2676,8457 2676,8486 2680,8514 2685,8542 2689,8565 2695,8590 2700,8613 2704,8637 2708,8656 2713,8675 2719,8689 2727,8703 2732,8717 2742,8731 2746,8741 2756,8746 2765,8754 2774,8760 2780,8765 2789,8765 "
     transform="translate(37.277772,-4294.4156)" />
  <polyline
     id="polyline200"
     style="fill:none;stroke:#000000;stroke-width:8;stroke-linecap:butt;stroke-linejoin:round"
     points="1574,5760 1604,5741 1636,5727 1674,5708 1712,5694 1750,5683 1787,5670 1830,5660 1867,5651 1916,5646 1958,5637 2001,5637 2048,5632 2094,5632 2141,5632 2194,5632 2241,5632 2293,5637 2345,5641 2396,5651 2449,5660 2506,5670 2557,5679 2615,5694 2666,5708 2722,5722 2780,5736 2836,5755 2893,5774 2950,5793 3006,5817 3063,5840 3120,5864 3176,5887 3233,5916 3290,5944 3346,5972 3403,6001 3460,6034 3511,6067 3568,6100 3620,6133 3677,6165 3730,6204 3781,6237 3834,6275 3885,6312 3938,6354 3985,6393 4036,6435 4083,6473 4131,6516 4174,6558 4220,6601 4263,6643 4305,6686 4348,6733 4385,6775 4424,6817 4461,6865 4499,6908 4533,6955 4565,6998 4598,7045 4626,7091 4656,7134 4683,7182 4707,7224 4730,7272 4754,7314 4773,7361 4792,7404 4811,7446 4826,7493 4839,7535 4853,7579 4864,7620 4872,7664 4877,7701 4882,7743 4887,7782 4887,7824 4887,7862 4882,7900 4882,7933 4872,7971 4868,8009 4858,8041 4845,8075 4834,8108 4820,8136 4802,8169 4783,8198 4764,8226 4744,8249 4722,8278 4698,8301 4669,8325 4641,8344 4613,8368 4579,8387 "
     transform="translate(37.277772,-4294.4156)" />
  <polyline
     id="polyline202"
     style="fill:none;stroke:#000000;stroke-width:8;stroke-linecap:butt;stroke-linejoin:round"
     points="828,6549 814,6582 805,6620 790,6653 785,6690 782,6728 776,6761 776,6798 776,6832 776,6870 785,6908 790,6941 801,6979 814,7012 828,7049 848,7083 867,7120 886,7154 909,7187 933,7224 960,7257 994,7290 1022,7323 1056,7352 1093,7385 1130,7413 1168,7446 1211,7475 1253,7503 1300,7531 1349,7560 1396,7588 1447,7612 1500,7639 1551,7664 1608,7687 1665,7711 1721,7730 1778,7754 1839,7772 1901,7791 1967,7809 2028,7824 2094,7843 2160,7857 2226,7871 2293,7881 2364,7895 2430,7905 2500,7913 2572,7924 2642,7933 2713,7938 2785,7942 2855,7947 2931,7947 3001,7952 3072,7952 3148,7952 3219,7947 3290,7947 3360,7942 3437,7938 3507,7933 3579,7924 3649,7913 3715,7905 3785,7895 3853,7886 3922,7871 3989,7857 4055,7843 4121,7828 4182,7809 4248,7791 4310,7772 4367,7754 4428,7735 4486,7711 4541,7687 4598,7664 4650,7639 4702,7616 4754,7588 4802,7565 4849,7535 4896,7508 4938,7479 4981,7446 5018,7418 5057,7390 5095,7357 5127,7323 5161,7290 5189,7257 5217,7224 5241,7191 5265,7158 5289,7125 5308,7087 5327,7054 5340,7016 5350,6983 5363,6945 5369,6908 5374,6875 5378,6837 5378,6804 5378,6766 5378,6728 5369,6695 5363,6657 5354,6620 5340,6586 5327,6549 "
     transform="translate(37.277772,-4294.4156)" />
  <polyline
     id="polyline204"
     style="fill:none;stroke:#000000;stroke-width:8;stroke-linecap:butt;stroke-linejoin:round"
     points="2453,6780 2496,6790 2538,6798 2581,6809 2628,6813 2671,6823 2719,6828 2761,6832 2807,6837 2850,6841 2897,6846 2945,6846 2993,6846 3035,6851 3082,6851 3129,6851 3176,6846 3219,6846 3267,6841 3313,6841 3356,6837 3403,6832 3450,6828 3493,6817 3535,6813 3583,6804 3626,6798 3668,6790 3711,6780 3749,6771 3791,6756 3834,6747 3871,6733 3908,6719 3946,6709 3985,6695 4023,6681 4055,6662 4089,6648 4121,6634 4154,6615 4187,6601 4216,6582 4244,6563 4272,6543 4297,6524 4324,6506 4348,6487 4371,6464 4390,6445 4414,6426 4433,6402 4448,6383 4467,6360 4480,6341 4494,6317 4504,6293 4513,6270 4522,6250 4533,6228 4537,6204 4541,6180 4546,6157 4552,6133 4552,6109 4552,6086 4546,6067 4541,6043 4537,6019 4533,5996 4522,5972 4513,5949 4504,5930 4490,5906 4475,5883 4461,5864 4443,5840 4428,5817 4409,5798 4385,5779 4367,5755 4343,5736 4320,5717 4291,5698 4267,5679 4239,5660 4212,5641 4178,5623 4150,5609 4116,5590 4083,5575 4046,5561 4012,5543 3974,5528 3938,5513 3900,5505 3861,5491 3823,5476 3781,5467 3743,5457 3700,5448 3658,5439 3615,5428 3573,5420 3526,5409 3483,5406 3437,5401 3394,5396 3346,5391 3304,5386 3256,5382 3209,5382 3163,5377 3120,5377 3072,5377 3025,5377 2978,5377 2935,5382 2889,5382 2841,5386 2798,5391 2751,5396 2704,5401 2661,5406 2619,5415 2572,5420 2530,5428 2487,5439 2445,5448 2406,5457 2364,5471 2322,5481 2283,5495 2245,5505 2208,5519 2171,5533 2133,5547 2099,5561 2067,5580 2033,5594 2001,5613 1967,5628 1939,5646 1910,5665 1882,5683 1859,5702 1830,5722 1806,5741 1782,5760 1763,5783 1740,5802 1721,5821 1708,5845 1689,5868 1674,5887 1660,5911 1650,5934 1641,5954 1631,5976 1623,6001 1617,6024 1612,6048 1608,6072 1604,6095 1604,6114 1604,6138 1608,6161 1612,6185 1617,6208 1623,6232 1631,6256 1641,6275 1650,6298 1665,6322 1678,6346 1693,6365 1712,6388 1727,6407 1745,6431 1769,6450 1787,6468 1812,6492 1835,6511 1863,6530 1886,6549 1916,6567 1943,6586 1976,6601 2005,6620 2037,6634 2071,6653 2109,6667 2141,6681 2179,6695 2217,6709 2256,6724 2293,6738 2330,6747 2373,6761 2411,6771 2453,6780 "
     transform="translate(37.277772,-4294.4156)" />
  <polyline
     id="polyline206"
     style="fill:none;stroke:#000000;stroke-width:8;stroke-linecap:butt;stroke-linejoin:round"
     points="2048,5543 2075,5533 2104,5524 2133,5519 2165,5513 2194,5509 2226,5509 2260,5509 2298,5513 2330,5513 2368,5519 2406,5528 2439,5533 2477,5543 2519,5556 2557,5566 2596,5580 2638,5598 2676,5613 2719,5632 2761,5651 2798,5675 2841,5698 2883,5722 2927,5745 2969,5774 3012,5802 3054,5830 3097,5859 3139,5891 3182,5925 3224,5958 3267,5991 3309,6029 3352,6067 3390,6104 3432,6143 3475,6180 3511,6223 3554,6265 3592,6308 3634,6350 3672,6393 3711,6439 3749,6482 3781,6530 3819,6577 3857,6624 3889,6671 3922,6719 3956,6766 3989,6813 4017,6860 4050,6913 4078,6960 4108,7007 4135,7059 4159,7106 4182,7158 4206,7205 4230,7253 4254,7304 4272,7352 4291,7399 4310,7446 4329,7493 4343,7541 4358,7588 4371,7635 4385,7678 4395,7724 4405,7767 4409,7815 4418,7857 4424,7900 4428,7938 4428,7980 4433,8017 4433,8056 4428,8094 4428,8131 4424,8169 4418,8202 4414,8235 4405,8268 4395,8297 4385,8330 4371,8358 4358,8387 4343,8410 4329,8434 4316,8457 4297,8480 4278,8500 4254,8519 4235,8538 4212,8557 4187,8571 4163,8585 4135,8594 4108,8604 "
     transform="translate(37.277772,-4294.4156)" />
  <polyline
     id="polyline208"
     style="fill:none;stroke:#000000;stroke-width:8;stroke-linecap:butt;stroke-linejoin:round"
     points="1192,6048 1160,6076 1130,6109 1107,6138 1083,6171 1060,6199 1041,6232 1022,6265 1003,6298 990,6331 979,6365 971,6397 960,6431 956,6464 952,6497 952,6530 952,6563 952,6596 956,6628 960,6662 971,6695 984,6728 994,6761 1013,6794 1026,6828 1045,6860 1069,6889 1088,6922 1117,6955 1141,6983 1168,7012 1202,7045 1234,7072 1268,7102 1306,7130 1343,7158 1381,7182 1423,7210 1466,7234 1508,7261 1556,7286 1604,7309 1655,7333 1702,7352 1754,7376 1806,7394 1863,7413 1920,7432 1976,7450 2033,7465 2090,7484 2152,7498 2213,7512 2275,7527 2335,7535 2396,7550 2464,7560 2524,7569 2591,7579 2657,7583 2722,7588 2789,7593 2855,7597 2921,7602 2987,7602 3054,7607 3120,7602 3190,7602 3256,7602 3322,7597 3390,7593 3456,7588 3522,7583 3583,7574 3649,7565 3715,7554 3776,7546 3838,7535 3904,7522 3961,7508 4023,7493 4083,7479 4140,7461 4196,7446 4254,7428 4310,7408 4363,7390 4414,7365 4467,7346 4518,7323 4565,7300 4613,7276 4659,7253 4702,7229 4744,7201 4787,7176 4826,7149 4864,7120 4896,7091 4930,7064 4962,7035 4996,7002 5023,6974 5047,6941 5070,6913 5095,6879 5113,6846 5132,6817 5151,6785 5165,6752 5174,6719 5185,6686 5193,6653 5198,6620 5204,6586 5204,6554 5204,6520 5204,6487 5198,6450 5193,6417 5185,6383 5170,6350 5161,6317 5142,6289 5127,6256 5108,6223 5085,6190 5066,6161 5038,6128 5015,6100 4985,6067 4962,6048 "
     transform="translate(37.277772,-4294.4156)" />
  <polyline
     id="polyline210"
     style="fill:none;stroke:#000000;stroke-width:8;stroke-linecap:butt;stroke-linejoin:round"
     points="1891,5598 1849,5617 1806,5637 1763,5656 1727,5679 1689,5698 1650,5722 1612,5745 1580,5769 1546,5793 1513,5817 1485,5840 1457,5868 1428,5891 1400,5920 1376,5944 1357,5972 1338,6001 1319,6029 1300,6053 1287,6080 1272,6109 1264,6138 1253,6165 1245,6194 1239,6228 1234,6256 1230,6284 1230,6312 1230,6341 1234,6369 1239,6397 1245,6426 1253,6459 1264,6487 1277,6516 1291,6543 1306,6567 1324,6596 1343,6624 1362,6653 1385,6681 1409,6705 1438,6733 1461,6756 1495,6780 1523,6809 1556,6832 1589,6856 1623,6879 1660,6898 1697,6922 1735,6945 1778,6965 1820,6983 1863,7002 1905,7021 1952,7040 2001,7059 2048,7072 2094,7091 2146,7106 2194,7120 2245,7134 2298,7144 2354,7158 2406,7168 2458,7176 2515,7187 2572,7196 2628,7205 2685,7210 2742,7215 2798,7219 2855,7224 2912,7229 2969,7229 3030,7229 3086,7229 3143,7229 3201,7229 3261,7229 3318,7224 3375,7219 3432,7215 3488,7210 3545,7201 3602,7191 3658,7187 3711,7176 3767,7163 3819,7154 3871,7139 3922,7130 3974,7116 4027,7102 4074,7087 4121,7068 4169,7054 4216,7035 4263,7016 4305,6998 4348,6979 4390,6960 4428,6936 4467,6917 4504,6894 4541,6870 4575,6846 4607,6823 4641,6798 4669,6775 4698,6747 4726,6724 4754,6695 4779,6671 4796,6643 4815,6615 4834,6586 4853,6563 4868,6535 4882,6506 4891,6478 4900,6450 4911,6420 4915,6388 4919,6360 4924,6331 4924,6303 4924,6275 4919,6246 4915,6218 4911,6190 4900,6157 4891,6128 4877,6100 4864,6072 4849,6048 4830,6019 4811,5991 4792,5963 4768,5939 4744,5911 4717,5883 4693,5859 4659,5835 4632,5807 4598,5783 4565,5760 4533,5736 4494,5717 4456,5694 4418,5675 4376,5651 4333,5632 4291,5613 4263,5598 "
     transform="translate(37.277772,-4294.4156)" />
  <polyline
     id="polyline212"
     style="fill:none;stroke:#000000;stroke-width:8;stroke-linecap:butt;stroke-linejoin:round"
     points="2500,5420 2515,5420 2534,5420 2553,5420 2576,5420 2596,5424 2615,5434 2638,5439 2657,5448 2680,5457 2704,5471 2722,5486 2746,5500 2770,5519 2793,5533 2817,5556 2841,5575 2870,5598 2893,5623 2916,5651 2940,5675 2969,5702 2993,5736 3016,5765 3044,5798 3067,5830 3091,5868 3120,5902 3143,5939 3167,5982 3195,6019 3219,6061 3243,6100 3271,6143 3294,6190 3318,6232 3341,6275 3365,6322 3390,6369 3413,6417 3437,6464 3460,6516 3479,6563 3502,6615 3522,6662 3545,6713 3564,6766 3583,6813 3606,6865 3626,6917 3639,6969 3658,7021 3677,7072 3691,7125 3711,7176 3724,7229 3738,7280 3753,7333 3767,7385 3781,7437 3791,7484 3804,7535 3815,7583 3823,7635 3834,7682 3842,7730 3853,7777 3857,7824 3861,7871 3871,7919 3876,7961 3876,8004 3880,8046 3885,8089 3885,8127 3885,8169 3885,8207 3885,8245 3880,8283 3880,8316 3876,8349 3871,8382 3866,8415 3861,8443 3857,8472 3847,8500 3842,8523 3834,8546 3823,8571 3815,8594 3800,8613 3791,8632 3776,8646 3762,8661 3753,8675 3738,8689 3719,8698 3706,8708 3691,8717 3672,8722 3653,8727 "
     transform="translate(37.277772,-4294.4156)" />
  <circle
     id="circle222"
     style="fill:#000000;stroke:#000000;stroke-width:8"
     r="47"
     cy="3855.5842"
     cx="2125.2778" />
  <circle
     id="circle224"
     style="fill:#000000;stroke:#000000;stroke-width:8"
     r="47"
     cy="3276.5847"
     cx="5252.2778" />
  <circle
     id="circle226"
     style="fill:#000000;stroke:#000000;stroke-width:8"
     r="47"
     cy="1560.5846"
     cx="3116.2778" />
  <circle
     id="circle228"
     style="fill:#000000;stroke:#000000;stroke-width:8"
     r="47"
     cy="2796.5847"
     cx="3111.2778" />
  <text
     style="font-style:normal;font-weight:normal;font-size:315px;line-height:0%;font-family:Times;text-anchor:start;fill:#000000;stroke:none;stroke-width:0.025in"
     id="text244"
     font-size="315"
     font-weight="normal"
     font-style="normal"
     y="2999.5847"
     x="4313.2778"
     xml:space="preserve"><tspan
       style="font-size:319.66662598px"
       id="tspan8851">a</tspan></text>
  <text
     style="font-style:normal;font-weight:normal;font-size:319.66662598px;line-height:0%;font-family:Times;text-anchor:start;fill:#000000;stroke:none;stroke-width:0.025in"
     id="text252"
     font-size="315"
     font-weight="normal"
     font-style="normal"
     y="3230.5847"
     x="2489.2778"
     xml:space="preserve">a</text>
  <text
     style="font-style:normal;font-weight:normal;font-size:315px;line-height:0%;font-family:Times;text-anchor:start;fill:#000000;stroke:none;stroke-width:0.025in"
     id="text254"
     font-size="315"
     font-weight="normal"
     font-style="normal"
     y="2400.5847"
     x="2909.2778"
     xml:space="preserve"><tspan
       style="font-size:319.66662598px"
       id="tspan8849">b</tspan></text>
</svg>
