<?xml version="1.0" encoding="UTF-8" standalone="no"?>
<!-- Creator: fig2dev Version 3.2 Patchlevel 5e -->

<!-- CreationDate: Sat Dec 12 14:16:06 2015 -->

<!-- Magnification: 1.050 -->

<svg
   xmlns:dc="http://purl.org/dc/elements/1.1/"
   xmlns:cc="http://creativecommons.org/ns#"
   xmlns:rdf="http://www.w3.org/1999/02/22-rdf-syntax-ns#"
   xmlns:svg="http://www.w3.org/2000/svg"
   xmlns="http://www.w3.org/2000/svg"
   xmlns:sodipodi="http://sodipodi.sourceforge.net/DTD/sodipodi-0.dtd"
   xmlns:inkscape="http://www.inkscape.org/namespaces/inkscape"
   width="143.8165"
   height="215.8165"
   viewBox="692 79 1915.5556 2865.0708"
   id="svg2"
   version="1.1"
   inkscape:version="0.92.2 (5c3e80d, 2017-08-06)"
   sodipodi:docname="geopoly.svg">
  <metadata
     id="metadata260">
    <rdf:RDF>
      <cc:Work
         rdf:about="">
        <dc:format>image/svg+xml</dc:format>
        <dc:type
           rdf:resource="http://purl.org/dc/dcmitype/StillImage" />
        <dc:title></dc:title>
      </cc:Work>
    </rdf:RDF>
  </metadata>
  <defs
     id="defs258">
    <clipPath
       clipPathUnits="userSpaceOnUse"
       id="clipPath3299">
      <rect
         style="opacity:0.606;fill:#e6e6e6;fill-opacity:1;stroke:#cccccc;stroke-width:14.71798515;stroke-miterlimit:4;stroke-dasharray:none"
         id="rect3301"
         width="1809.0001"
         height="2768"
         x="5669.7798"
         y="762.11658" />
    </clipPath>
  </defs>
  <sodipodi:namedview
     pagecolor="#ffffff"
     bordercolor="#666666"
     borderopacity="1"
     objecttolerance="10"
     gridtolerance="10"
     guidetolerance="10"
     inkscape:pageopacity="0"
     inkscape:pageshadow="2"
     inkscape:window-width="1360"
     inkscape:window-height="715"
     id="namedview256"
     showgrid="false"
     units="mm"
     fit-margin-top="4"
     fit-margin-left="4"
     fit-margin-right="4"
     fit-margin-bottom="4"
     inkscape:zoom="1.4028994"
     inkscape:cx="245.82867"
     inkscape:cy="75.803947"
     inkscape:window-x="0"
     inkscape:window-y="24"
     inkscape:window-maximized="1"
     inkscape:current-layer="svg2" />
  <g
     id="g3297"
     clip-path="url(#clipPath3299)"
     transform="translate(-4924.502,-644.81312)">
    <polyline
       transform="translate(172.77951,165.11657)"
       points="7801,2341 7801,2279 7797,2223 7793,2160 7787,2103 7778,2043 7769,1986 7755,1929 7740,1872 7725,1811 7708,1755 7689,1702 7670,1646 7646,1589 7623,1538 7593,1481 7570,1428 7538,1377 7508,1330 7476,1277 7442,1230 7404,1183 7366,1135 7330,1088 7292,1045 7249,1003 7207,960 7164,922 7117,886 7069,848 7022,810 6975,776 6922,744 6875,714 6824,682 6771,659 6714,629 6663,606 6606,582 6550,563 6497,544 6441,527 6380,512 6323,497 6266,483 6209,474 6149,465 6092,459 6029,455 5973,451 5911,451 5850,451 5794,455 5733,459 5675,465 5614,474 5558,483 5501,497 5444,512 5382,527 5327,544 5274,563 5217,582 5161,606 5108,629 5053,659 5000,682 4949,714 4900,744 4849,776 4802,810 4754,848 4707,886 4660,922 4618,960 4575,1003 4533,1045 4494,1088 4456,1135 4418,1183 4382,1230 4348,1277 4316,1330 4286,1377 4254,1428 4230,1481 4201,1538 4178,1589 4155,1646 4135,1702 4116,1755 4097,1811 4083,1872 4070,1929 4055,1986 4046,2043 4036,2103 4031,2160 4027,2223 4023,2279 4023,2341 4023,2402 4027,2458 4031,2519 4036,2577 4046,2638 4055,2695 4070,2751 4083,2808 4097,2870 4116,2925 4135,2978 4155,3035 4178,3091 4201,3144 4230,3199 4254,3252 4286,3303 4316,3352 4348,3403 4382,3450 4418,3498 4456,3545 4494,3592 4533,3634 4575,3677 4618,3719 4660,3758 4707,3796 4754,3834 4802,3870 4849,3904 4900,3937 4949,3966 5000,3998 5053,4022 5108,4051 5161,4074 5217,4097 5274,4117 5327,4136 5382,4155 5444,4169 5501,4182 5558,4197 5614,4206 5675,4216 5733,4221 5794,4225 5850,4229 5911,4229 5973,4229 6029,4225 6092,4221 6149,4216 6209,4206 6266,4197 6323,4182 6380,4169 6441,4155 6497,4136 6550,4117 6606,4097 6663,4074 6714,4051 6771,4022 6824,3998 6875,3966 6922,3937 6975,3904 7022,3870 7069,3834 7117,3796 7164,3758 7207,3719 7249,3677 7292,3634 7330,3592 7366,3545 7404,3498 7442,3450 7476,3403 7508,3352 7538,3303 7570,3252 7593,3199 7623,3144 7646,3091 7670,3035 7689,2978 7708,2925 7725,2870 7740,2808 7755,2751 7769,2695 7778,2638 7787,2577 7793,2519 7797,2458 7801,2402 7801,2341 "
       style="fill:none;stroke:#cccccc;stroke-width:16;stroke-linecap:butt;stroke-linejoin:round"
       id="polyline6" />
    <path
       sodipodi:nodetypes="cc"
       inkscape:connector-curvature="0"
       id="path3137"
       d="m 7244.3091,2322.256 c 0,0 110.7714,316.3705 -3e-4,594.9779"
       style="fill:none;fill-rule:evenodd;stroke:#000000;stroke-width:13.31944275px;stroke-linecap:butt;stroke-linejoin:miter;stroke-opacity:1" />
    <path
       sodipodi:nodetypes="cc"
       inkscape:connector-curvature="0"
       id="path3143"
       d="m 6146.6629,2900.4504 c 0,0 293.6223,31.6587 667.9864,-161.1224"
       style="fill:none;fill-rule:evenodd;stroke:#000000;stroke-width:13.31944275px;stroke-linecap:butt;stroke-linejoin:miter;stroke-opacity:1" />
    <path
       sodipodi:nodetypes="cc"
       inkscape:connector-curvature="0"
       id="path3145"
       d="m 6814.6493,2739.328 c 0,0 436.049,-59.45 429.6598,-417.072"
       style="fill:none;fill-rule:evenodd;stroke:#000000;stroke-width:13.31944275px;stroke-linecap:butt;stroke-linejoin:miter;stroke-opacity:1" />
    <path
       inkscape:connector-curvature="0"
       id="path3258"
       d="m 6929.7061,3263.659 c 0,0 239.9422,-94.714 314.6027,-346.4251"
       style="fill:none;fill-rule:evenodd;stroke:#000000;stroke-width:13.31944275px;stroke-linecap:butt;stroke-linejoin:miter;stroke-opacity:1" />
    <path
       inkscape:connector-curvature="0"
       id="path3260"
       d="m 6146.6629,2900.4504 c 0,0 341.5618,505.622 783.0432,363.2086"
       style="fill:none;fill-rule:evenodd;stroke:#000000;stroke-width:13.31944275px;stroke-linecap:butt;stroke-linejoin:miter;stroke-opacity:1" />
    <polyline
       transform="translate(172.77951,165.11657)"
       points="6342,497 6319,497 6300,493 6276,493 6253,493 6228,497 6209,502 6185,512 6162,517 6134,531 6111,540 6087,555 6064,574 6039,587 6011,606 5987,629 5964,654 5941,678 5911,701 5888,729 5864,758 5837,791 5813,824 5790,856 5765,890 5737,928 5713,965 5690,1003 5667,1045 5643,1088 5618,1130 5595,1177 5571,1220 5552,1268 5529,1315 5505,1366 5486,1415 5463,1466 5444,1519 5425,1570 5401,1623 5382,1674 5363,1731 5350,1787 5331,1840 5312,1897 5297,1952 5283,2010 5265,2067 5250,2128 5236,2184 5227,2241 5212,2298 5204,2360 5189,2415 5180,2473 5170,2530 5161,2591 5151,2647 5146,2704 5138,2761 5132,2817 5127,2870 5123,2925 5119,2982 5119,3035 5113,3091 5113,3144 5113,3195 5113,3243 5113,3295 5119,3341 5119,3394 5123,3441 5127,3484 5132,3530 5138,3573 5146,3615 5151,3658 5161,3696 5170,3738 5180,3777 5189,3809 5198,3843 5212,3876 5223,3908 5236,3937 5250,3966 5265,3993 5278,4017 5297,4040 5312,4065 5331,4083 5344,4102 5363,4117 5382,4136 5401,4144 5420,4160 5440,4169 5463,4174 5482,4182 "
       style="fill:none;stroke:#cccccc;stroke-width:8;stroke-linecap:butt;stroke-linejoin:round"
       id="polyline14" />
    <polyline
       transform="translate(172.77951,165.11657)"
       points="4528,1050 4560,1018 4594,984 4632,956 4669,928 4707,899 4745,871 4783,848 4826,824 4868,799 4911,782 4953,763 5000,744 5047,725 5089,710 5142,701 5189,686 5236,678 5289,672 5335,663 5387,659 5440,659 5491,654 5544,659 5595,659 5652,663 5703,667 5756,672 5813,682 5864,691 5917,706 5973,720 6026,733 6077,749 6134,767 6185,791 6238,810 6289,833 6342,856 6393,886 6446,909 6497,938 6550,971 6597,999 6648,1032 6697,1069 6744,1103 6790,1141 6833,1177 6880,1215 6922,1254 6965,1296 7007,1338 7050,1381 7088,1423 7126,1470 7164,1519 7202,1561 7234,1608 7268,1659 7300,1708 7334,1755 7362,1806 7391,1859 7415,1906 7442,1958 7466,2010 7485,2061 7508,2114 7527,2165 7542,2223 7555,2274 7570,2326 7585,2377 7593,2430 7604,2487 7612,2538 7617,2591 7623,2643 7623,2695 7627,2747 7623,2798 7623,2846 7617,2897 7612,2944 7604,2997 7593,3044 7585,3091 7570,3139 7555,3186 7538,3233 7523,3275 7503,3318 7481,3360 7457,3403 7434,3445 7409,3484 7381,3522 7353,3560 7324,3592 7296,3630 "
       style="fill:none;stroke:#cccccc;stroke-width:8;stroke-linecap:butt;stroke-linejoin:round"
       id="polyline28" />
    <polyline
       transform="translate(172.77951,165.11657)"
       points="4131,1712 4150,1665 4169,1617 4187,1570 4212,1528 4235,1481 4263,1438 4291,1396 4320,1353 4348,1311 4382,1273 4418,1234 4452,1196 4490,1160 4528,1126 4565,1088 4607,1056 4650,1026 4692,994 4741,965 4787,938 4830,914 4881,886 4930,861 4981,843 5028,818 5081,799 5138,786 5189,767 5241,752 5297,744 5355,729 5412,720 5467,710 5524,706 5582,701 5637,697 5694,697 5756,697 5813,697 5869,701 5930,706 5987,710 6045,720 6106,729 6162,739 6219,752 6276,767 6338,786 6393,799 6446,818 6502,843 6559,861 6612,886 6667,909 6720,938 6771,965 6824,994 6875,1023 6922,1056 6971,1088 7022,1122 7064,1160 7111,1196 7154,1234 7196,1273 7239,1311 7281,1353 7319,1396 7357,1438 7396,1481 7428,1523 7461,1570 7495,1617 7523,1665 7551,1712 7580,1760 7604,1806 7627,1854 7650,1906 7670,1958 7689,2005 7702,2056 7716,2109 7731,2160 7744,2207 7755,2260 7759,2311 7769,2364 7769,2415 7774,2468 7774,2519 7774,2572 7769,2623 7763,2670 7755,2723 7744,2774 7735,2823 7725,2874 7712,2921 7692,2969 "
       style="fill:none;stroke:#cccccc;stroke-width:8;stroke-linecap:butt;stroke-linejoin:round"
       id="polyline34" />
    <polyline
       transform="translate(172.77951,165.11657)"
       points="4050,2666 4041,2615 4036,2562 4031,2515 4031,2462 4031,2411 4031,2360 4036,2307 4041,2256 4046,2203 4055,2156 4065,2103 4078,2052 4092,1999 4108,1952 4127,1901 4145,1854 4169,1802 4187,1755 4216,1708 4240,1659 4267,1612 4297,1566 4329,1523 4363,1481 4395,1434 4433,1391 4471,1353 4509,1311 4552,1273 4590,1234 4632,1196 4679,1160 4722,1126 4768,1088 4815,1056 4864,1026 4915,994 4967,965 5019,941 5070,914 5123,890 5174,867 5231,843 5289,824 5344,805 5401,786 5459,771 5516,758 5571,744 5633,733 5690,725 5746,714 5807,710 5864,706 5926,701 5983,701 6045,701 6100,706 6162,706 6219,710 6281,720 6338,729 6393,739 6450,749 6508,763 6563,776 6616,791 6672,810 6724,829 6776,848 6829,871 6880,895 6933,918 6979,946 7032,975 7079,1003 7122,1032 7168,1065 7211,1098 7253,1130 7292,1169 7334,1207 7372,1245 7409,1281 7442,1319 7476,1362 7508,1404 7538,1447 7570,1489 7593,1532 7623,1580 7646,1627 7670,1674 7689,1721 7708,1769 7721,1816 7740,1863 7755,1914 7763,1963 7774,2014 "
       style="fill:none;stroke:#cccccc;stroke-width:8;stroke-linecap:butt;stroke-linejoin:round"
       id="polyline40" />
    <polyline
       transform="translate(172.77951,165.11657)"
       points="4386,3450 4358,3413 4329,3371 4305,3333 4282,3290 4263,3243 4240,3199 4225,3152 4206,3110 4193,3063 4178,3016 4169,2963 4159,2917 4150,2870 4145,2817 4140,2766 4135,2719 4135,2666 4135,2615 4140,2562 4145,2511 4150,2458 4159,2407 4169,2354 4178,2298 4193,2245 4206,2194 4220,2141 4240,2090 4259,2037 4282,1986 4305,1939 4329,1886 4352,1835 4382,1787 4409,1736 4443,1689 4475,1640 4509,1593 4541,1547 4579,1500 4618,1457 4656,1415 4692,1372 4735,1330 4779,1287 4820,1245 4868,1207 4911,1169 4957,1130 5004,1098 5057,1065 5103,1032 5156,999 5204,965 5255,938 5308,909 5363,886 5416,861 5467,837 5524,814 5576,795 5633,776 5690,758 5741,744 5798,729 5856,714 5911,706 5968,697 6020,686 6077,682 6134,678 6191,672 6242,672 6300,672 6351,672 6408,678 6459,682 6512,691 6563,701 6616,710 6667,720 6714,733 6767,749 6814,767 6861,786 6909,805 6956,824 6998,848 7040,871 7083,899 7126,928 7168,956 7207,984 7245,1013 7277,1045 7314,1079 7349,1117 7381,1154 7409,1188 7438,1230 "
       style="fill:none;stroke:#cccccc;stroke-width:8;stroke-linecap:butt;stroke-linejoin:round"
       id="polyline46" />
    <polyline
       transform="translate(172.77951,165.11657)"
       points="4815,3881 4779,3851 4749,3828 4717,3800 4683,3766 4656,3738 4626,3706 4603,3673 4575,3634 4552,3602 4533,3564 4509,3522 4490,3484 4471,3441 4452,3399 4437,3356 4424,3314 4409,3267 4401,3218 4390,3176 4382,3125 4376,3078 4371,3029 4367,2978 4363,2925 4363,2878 4367,2827 4367,2774 4371,2719 4376,2666 4386,2615 4390,2562 4401,2506 4414,2454 4429,2396 4443,2345 4456,2288 4475,2237 4494,2184 4513,2128 4537,2075 4556,2018 4584,1967 4607,1914 4637,1863 4664,1811 4692,1760 4722,1708 4754,1659 4787,1608 4820,1561 4853,1513 4892,1466 4930,1419 4967,1377 5004,1330 5047,1287 5085,1245 5127,1202 5170,1164 5212,1126 5255,1088 5302,1050 5344,1013 5393,980 5440,946 5486,918 5533,886 5582,856 5629,833 5675,805 5722,782 5771,758 5818,739 5869,720 5917,701 5964,686 6015,672 6064,659 6111,648 6157,640 6204,629 6257,625 6303,621 6346,616 6393,616 6441,616 6489,621 6531,625 6574,629 6620,635 6663,644 6705,659 6744,667 6786,682 6824,701 6867,714 6903,733 6937,758 6975,776 7007,799 "
       style="fill:none;stroke:#cccccc;stroke-width:8;stroke-linecap:butt;stroke-linejoin:round"
       id="polyline52" />
    <polyline
       transform="translate(172.77951,165.11657)"
       points="5180,4083 5151,4070 5123,4055 5095,4036 5066,4017 5038,3998 5015,3974 4985,3951 4962,3928 4938,3900 4915,3870 4896,3843 4877,3809 4853,3777 4839,3743 4820,3711 4802,3673 4787,3634 4773,3592 4764,3554 4749,3511 4741,3469 4730,3422 4722,3380 4717,3333 4707,3285 4703,3237 4703,3186 4698,3139 4698,3086 4698,3035 4698,2982 4703,2931 4703,2878 4711,2823 4717,2770 4722,2713 4730,2657 4741,2604 4749,2549 4764,2492 4779,2434 4792,2377 4807,2322 4820,2265 4839,2213 4858,2156 4877,2099 4896,2043 4919,1986 4943,1933 4967,1878 4991,1825 5015,1774 5042,1717 5066,1665 5095,1612 5123,1561 5156,1513 5185,1462 5217,1415 5246,1366 5278,1319 5312,1273 5344,1230 5378,1188 5416,1145 5448,1103 5486,1065 5520,1023 5558,988 5595,952 5629,918 5667,880 5703,852 5741,818 5779,791 5818,763 5856,739 5892,714 5935,691 5973,672 6011,648 6049,635 6087,616 6124,602 6162,593 6196,578 6234,569 6270,563 6308,560 6342,555 6380,550 6412,550 6450,555 6483,555 6516,560 6550,569 6582,574 6612,587 6644,597 "
       style="fill:none;stroke:#cccccc;stroke-width:8;stroke-linecap:butt;stroke-linejoin:round"
       id="polyline58" />
    <polyline
       transform="translate(172.77951,165.11657)"
       points="5100,4046 5127,4059 5156,4070 5185,4083 5212,4093 5241,4102 5274,4117 5302,4125 5335,4136 5369,4144 5401,4150 5435,4160 5472,4163 5505,4174 5539,4178 5576,4182 5609,4187 5648,4193 5680,4197 5718,4202 5756,4202 5794,4206 5832,4206 5864,4206 5903,4211 5941,4206 5979,4206 6015,4206 6049,4206 6087,4202 6124,4197 6162,4197 6196,4193 6234,4187 6266,4182 6303,4174 6338,4169 6370,4163 6408,4155 6441,4144 6474,4140 6502,4131 6535,4121 6569,4107 6597,4097 6625,4089 6659,4074 6686,4065 6724,4046 "
       style="fill:none;stroke:#cccccc;stroke-width:8;stroke-linecap:butt;stroke-linejoin:round"
       id="polyline64" />
    <polyline
       transform="translate(172.77951,165.11657)"
       points="4598,3700 4622,3719 4645,3743 4669,3762 4698,3781 4722,3800 4749,3819 4779,3838 4811,3851 4845,3870 4872,3885 4911,3904 4943,3919 4977,3932 5015,3947 5053,3961 5089,3974 5127,3989 5170,3998 5208,4012 5250,4022 5292,4032 5335,4040 5378,4051 5420,4055 5467,4065 5510,4070 5552,4078 5601,4083 5648,4089 5690,4093 5737,4093 5784,4097 5832,4097 5875,4097 5922,4097 5968,4097 6015,4097 6064,4097 6106,4093 6153,4089 6200,4083 6242,4078 6289,4074 6332,4070 6380,4059 6423,4055 6465,4046 6508,4036 6550,4027 6593,4017 6635,4004 6672,3993 6710,3980 6752,3970 6790,3955 6824,3942 6861,3928 6899,3913 6933,3895 6965,3881 6998,3862 7026,3847 7056,3828 7083,3809 7111,3791 7141,3772 7164,3753 7187,3734 7211,3711 7226,3700 "
       style="fill:none;stroke:#cccccc;stroke-width:8;stroke-linecap:butt;stroke-linejoin:round"
       id="polyline70" />
    <polyline
       transform="translate(172.77951,165.11657)"
       points="4278,3285 4291,3314 4310,3337 4329,3360 4348,3388 4371,3413 4395,3437 4418,3460 4448,3484 4475,3507 4504,3526 4533,3549 4565,3573 4598,3592 4632,3611 4669,3634 4707,3654 4745,3673 4783,3687 4826,3706 4868,3724 4911,3738 4953,3753 5000,3766 5042,3781 5089,3796 5138,3809 5185,3819 5236,3834 5283,3843 5335,3851 5382,3862 5435,3866 5486,3876 5539,3881 5590,3885 5643,3889 5694,3895 5752,3900 5803,3900 5856,3900 5911,3900 5964,3900 6015,3900 6072,3900 6124,3895 6177,3889 6228,3885 6281,3881 6332,3876 6385,3866 6436,3862 6489,3851 6535,3843 6587,3834 6635,3819 6682,3809 6729,3796 6776,3781 6824,3772 6867,3753 6913,3738 6956,3724 6994,3706 7037,3692 7075,3673 7117,3654 7149,3634 7187,3615 7220,3592 7258,3573 7287,3549 7319,3530 7349,3507 7377,3484 7404,3460 7428,3437 7453,3413 7476,3388 7495,3365 7513,3341 7532,3314 7546,3285 "
       style="fill:none;stroke:#cccccc;stroke-width:8;stroke-linecap:butt;stroke-linejoin:round"
       id="polyline76" />
    <polyline
       transform="translate(172.77951,165.11657)"
       points="4083,2827 4092,2855 4102,2883 4116,2912 4131,2940 4145,2969 4163,2997 4182,3021 4201,3048 4225,3078 4248,3101 4278,3129 4301,3152 4333,3176 4363,3205 4395,3229 4429,3252 4461,3275 4499,3295 4537,3318 4575,3337 4618,3360 4660,3380 4703,3399 4745,3418 4792,3437 4839,3456 4887,3469 4934,3484 4985,3503 5034,3517 5085,3526 5138,3541 5189,3554 5246,3564 5297,3573 5355,3583 5412,3592 5463,3596 5520,3607 5576,3611 5633,3615 5694,3620 5752,3620 5807,3626 5864,3626 5926,3626 5983,3626 6039,3626 6096,3620 6153,3615 6215,3611 6270,3607 6327,3602 6380,3596 6436,3588 6492,3577 6544,3569 6601,3560 6654,3549 6705,3535 6758,3522 6809,3507 6861,3492 6909,3479 6956,3465 7003,3445 7050,3426 7098,3413 7141,3394 7183,3371 7226,3352 7264,3333 7300,3309 7338,3285 7377,3267 7409,3243 7442,3218 7476,3191 7503,3167 7532,3144 7561,3114 7585,3091 7608,3063 7631,3040 7650,3011 7670,2982 7683,2955 7697,2925 7712,2897 7725,2870 7735,2840 7740,2827 "
       style="fill:none;stroke:#cccccc;stroke-width:8;stroke-linecap:butt;stroke-linejoin:round"
       id="polyline82" />
    <polyline
       transform="translate(172.77951,165.11657)"
       points="4023,2341 4023,2369 4027,2402 4031,2430 4036,2458 4046,2487 4055,2515 4070,2549 4083,2577 4097,2604 4116,2634 4135,2662 4155,2689 4178,2713 4201,2742 4230,2770 4254,2793 4286,2823 4316,2846 4348,2870 4382,2897 4418,2921 4456,2940 4494,2963 4533,2987 4575,3006 4618,3029 4660,3048 4707,3067 4754,3086 4802,3106 4849,3120 4900,3139 4949,3152 5000,3167 5053,3182 5108,3195 5161,3210 5217,3218 5274,3229 5327,3237 5382,3248 5444,3256 5501,3261 5558,3267 5614,3275 5675,3275 5733,3280 5794,3285 5850,3285 5911,3285 5973,3285 6029,3285 6092,3280 6149,3275 6209,3275 6266,3267 6323,3261 6380,3256 6441,3248 6497,3237 6550,3229 6606,3218 6663,3210 6714,3195 6771,3182 6824,3167 6875,3152 6922,3139 6975,3120 7022,3106 7069,3086 7117,3067 7164,3048 7207,3029 7249,3006 7292,2987 7330,2963 7366,2940 7404,2921 7442,2897 7476,2870 7508,2846 7538,2823 7570,2793 7593,2770 7623,2742 7646,2713 7670,2689 7689,2662 7708,2634 7725,2604 7740,2577 7755,2549 7769,2515 7778,2487 7787,2458 7793,2430 7797,2402 7801,2369 7801,2341 "
       style="fill:none;stroke:#cccccc;stroke-width:8;stroke-linecap:butt;stroke-linejoin:round"
       id="polyline86" />
    <polyline
       transform="translate(172.77951,165.11657)"
       points="4598,980 4579,999 4560,1023 4541,1041 4528,1065 4509,1088 4494,1107 4486,1130 4471,1154 4461,1177 4452,1196 4448,1220 4443,1245 4437,1268 4437,1292 4433,1315 4433,1338 4437,1362 4437,1385 4443,1404 4452,1428 4456,1451 4467,1476 4480,1500 4490,1523 4504,1542 4518,1566 4533,1589 4552,1608 4571,1632 4590,1651 4613,1670 4637,1693 4660,1712 4683,1731 4711,1750 4741,1769 4768,1787 4796,1806 4826,1821 4858,1840 4892,1854 4924,1872 4962,1886 5000,1901 5034,1914 5070,1929 5113,1939 5151,1952 5189,1963 5231,1976 5274,1986 5316,1995 5359,2005 5401,2014 5444,2018 5491,2029 5533,2033 5582,2037 5624,2043 5671,2048 5718,2052 5760,2056 5807,2056 5856,2056 5903,2056 5949,2056 5992,2056 6039,2056 6087,2052 6134,2052 6177,2048 6223,2043 6270,2037 6313,2029 6355,2024 6404,2018 6446,2010 6489,1999 6531,1991 6574,1982 6616,1971 6654,1958 6697,1949 6733,1933 6771,1920 6809,1906 6848,1891 6880,1878 6913,1863 6952,1844 6979,1829 7013,1811 7045,1797 7075,1778 7103,1760 7126,1740 7154,1721 7179,1702 7202,1678 7226,1659 7245,1640 7264,1617 7281,1598 7296,1574 7314,1551 7330,1532 7338,1508 7353,1485 7362,1462 7372,1443 7377,1419 7381,1396 7385,1372 7385,1349 7391,1324 7391,1300 7385,1277 7385,1254 7381,1234 7372,1212 7366,1188 7357,1164 7343,1141 7334,1117 7319,1098 7306,1074 7292,1056 7272,1032 7253,1007 7226,980 "
       style="fill:none;stroke:#cccccc;stroke-width:8;stroke-linecap:butt;stroke-linejoin:round"
       id="polyline130" />
    <polyline
       transform="translate(172.77951,165.11657)"
       points="5289,555 5316,550 5344,540 5374,536 5401,531 5435,531 5463,531 5497,531 5529,536 5558,540 5590,550 5624,560 5656,569 5690,578 5722,593 5756,612 5794,629 5826,648 5860,667 5892,691 5926,714 5964,739 5996,767 6029,795 6064,829 6096,861 6130,895 6162,928 6196,965 6228,1003 6261,1041 6295,1079 6327,1122 6355,1164 6389,1212 6417,1254 6446,1300 6478,1349 6508,1396 6535,1443 6563,1495 6587,1547 6616,1598 6640,1651 6663,1702 6691,1755 6710,1811 6733,1863 6758,1920 6776,1976 6801,2029 6818,2085 6833,2141 6852,2199 6871,2256 6886,2311 6899,2369 6913,2426 6928,2481 6937,2538 6946,2596 6956,2651 6965,2708 6975,2766 6979,2817 6984,2874 6990,2925 6994,2982 6994,3035 6994,3086 6994,3139 6994,3191 6994,3237 6990,3285 6984,3337 6979,3384 6975,3426 6965,3474 6956,3517 6946,3560 6937,3602 6928,3639 6913,3681 6899,3719 6886,3753 6871,3791 6852,3823 6837,3851 6818,3885 6801,3913 6782,3942 6758,3966 6739,3989 6714,4012 6691,4036 6667,4055 6644,4070 6616,4089 6593,4102 6563,4112 6535,4125 "
       style="fill:none;stroke:#cccccc;stroke-width:8;stroke-linecap:butt;stroke-linejoin:round"
       id="polyline136" />
    <polyline
       transform="translate(172.77951,165.11657)"
       points="4943,714 4981,697 5015,682 5053,663 5085,648 5123,635 5166,625 5204,616 5241,606 5283,602 5327,597 5369,597 5412,597 5454,597 5497,597 5539,602 5582,606 5629,616 5671,625 5718,635 5760,648 5807,663 5856,682 5898,697 5945,720 5987,739 6034,763 6081,786 6124,810 6172,837 6215,867 6257,899 6303,928 6346,960 6389,994 6431,1032 6474,1069 6516,1107 6559,1145 6597,1188 6640,1230 6678,1273 6714,1315 6752,1358 6790,1404 6824,1451 6861,1500 6894,1547 6928,1598 6956,1646 6990,1697 7018,1750 7045,1802 7075,1854 7103,1906 7126,1963 7149,2014 7173,2067 7196,2122 7215,2175 7234,2232 7253,2288 7268,2341 7287,2396 7296,2449 7311,2506 7319,2562 7330,2615 7338,2666 7349,2723 7353,2774 7357,2827 7357,2878 7357,2931 7357,2982 7357,3035 7353,3086 7349,3133 7343,3182 7338,3229 7330,3275 7314,3322 7306,3365 7292,3413 7277,3456 7264,3492 7245,3535 7226,3573 7207,3611 7187,3649 7164,3687 7141,3719 7117,3753 7092,3785 7064,3815 7037,3843 7007,3870 6975,3895 6946,3919 6913,3942 6880,3966 "
       style="fill:none;stroke:#cccccc;stroke-width:8;stroke-linecap:butt;stroke-linejoin:round"
       id="polyline142" />
    <polyline
       transform="translate(172.77951,165.11657)"
       points="5100,635 5070,648 5047,659 5023,672 5000,686 4977,701 4953,720 4934,733 4911,749 4892,763 4877,782 4858,795 4845,814 4826,829 4811,848 4802,867 4787,880 4779,899 4768,918 4760,938 4754,956 4745,975 4741,988 4741,1007 4735,1026 4735,1045 4735,1065 4735,1084 4735,1103 4741,1122 4745,1141 4749,1160 4754,1173 4764,1192 4773,1212 4783,1230 4792,1249 4807,1262 4820,1281 4834,1300 4849,1315 4868,1334 4881,1349 4900,1362 4919,1381 4943,1396 4962,1409 4985,1423 5009,1438 5034,1451 5057,1466 5085,1481 5113,1495 5138,1504 5166,1519 5198,1528 5227,1542 5255,1551 5289,1561 5321,1570 5350,1580 5382,1589 5416,1593 5454,1604 5486,1608 5520,1617 5558,1623 5590,1627 5629,1632 5661,1636 5699,1640 5737,1640 5775,1646 5807,1646 5845,1651 5883,1651 5922,1651 5960,1651 5992,1651 6029,1646 6068,1646 6106,1640 6143,1636 6177,1636 6215,1632 6247,1627 6285,1617 6319,1612 6351,1608 6389,1598 6423,1593 6455,1585 6489,1574 6521,1566 6550,1555 6582,1547 6612,1538 6640,1523 6667,1513 6697,1500 6724,1485 6752,1476 6776,1462 6801,1447 6824,1434 6848,1419 6871,1404 6890,1391 6913,1372 6933,1358 6946,1338 6965,1324 6979,1306 6998,1292 7013,1273 7022,1258 7037,1239 7045,1220 7056,1202 7064,1183 7069,1169 7079,1149 7083,1130 7083,1111 7088,1092 7088,1074 7088,1056 7088,1037 7088,1018 7083,1003 7079,984 7075,965 7069,946 7060,928 7050,909 7040,895 7032,875 7018,856 7003,837 6990,824 6975,805 6956,791 6941,771 6922,758 6903,744 6880,725 6861,710 6837,697 6814,682 6790,667 6767,654 6739,640 6724,635 "
       style="fill:none;stroke:#cccccc;stroke-width:8;stroke-linecap:butt;stroke-linejoin:round"
       id="polyline144" />
    <polyline
       transform="translate(172.77951,165.11657)"
       points="6077,459 6068,459 6058,459 6049,465 6039,470 6029,478 6020,489 6011,497 6002,512 5992,527 5983,540 5973,560 5964,582 5949,602 5941,625 5930,654 5922,678 5911,706 5903,739 5888,767 5879,805 5869,837 5860,875 5850,914 5841,952 5826,994 5818,1032 5807,1079 5798,1122 5790,1169 5779,1215 5771,1262 5760,1311 5752,1362 5741,1409 5737,1462 5728,1519 5718,1570 5709,1623 5703,1678 5694,1736 5686,1793 5680,1848 5671,1906 5667,1963 5656,2018 5652,2080 5648,2138 5637,2199 5633,2256 5629,2317 5624,2373 5618,2434 5614,2492 5609,2553 5605,2609 5605,2666 5601,2728 5595,2785 5595,2840 5590,2897 5590,2955 5586,3011 5586,3063 5586,3120 5586,3171 5586,3224 5586,3275 5586,3328 5586,3380 5586,3426 5586,3474 5586,3522 5590,3569 5590,3611 5595,3654 5595,3696 5601,3734 5605,3777 5609,3815 5609,3847 5614,3885 5618,3919 5624,3947 5629,3980 5633,4008 5643,4032 5648,4059 5652,4083 5661,4102 5667,4121 5675,4140 5680,4160 5690,4174 5694,4182 5703,4197 5713,4206 5718,4211 5728,4216 5737,4221 5746,4221 "
       style="fill:none;stroke:#cccccc;stroke-width:8;stroke-linecap:butt;stroke-linejoin:round"
       id="polyline158" />
    <polyline
       transform="translate(172.77951,165.11657)"
       points="5567,1239 5590,1245 5614,1249 5637,1254 5661,1258 5686,1258 5709,1262 5737,1268 5760,1268 5784,1273 5813,1273 5837,1273 5864,1277 5888,1277 5917,1277 5941,1277 5968,1273 5992,1273 6015,1273 6045,1273 6068,1268 6092,1268 6119,1262 6143,1258 6167,1254 6191,1249 6215,1245 6238,1239 6261,1234 6285,1230 6308,1226 6332,1215 6355,1212 6374,1202 6398,1196 6417,1188 6436,1183 6455,1173 6474,1164 6492,1154 6512,1145 6531,1135 6544,1126 6563,1117 6578,1107 6593,1092 6606,1084 6620,1074 6629,1060 6644,1050 6654,1041 6667,1026 6678,1018 6682,1003 6691,988 6701,980 6705,965 6714,956 6720,941 6724,928 6724,914 6729,903 6729,890 6729,875 6733,867 6729,852 6729,837 6729,824 6724,814 6720,799 6714,786 6710,776 6705,763 6697,749 6691,739 6682,725 6672,714 6663,701 6654,691 6640,678 6629,667 6616,654 6601,644 6587,635 6574,625 6559,612 6540,602 6527,593 6508,582 6489,574 6470,563 6450,560 6431,550 6412,540 6393,536 6370,527 6346,517 6327,512 6303,508 6281,497 6257,493 6234,489 6209,483 6185,478 6162,474 6138,470 6114,470 6087,465 6064,465 6039,459 6011,459 5987,455 5960,455 5935,455 5907,455 5883,455 5856,455 5832,459 5807,459 5779,459 5756,465 5733,465 5703,470 5680,474 5656,474 5633,478 5609,483 5586,489 5563,497 5539,502 5516,508 5491,512 5467,521 5448,527 5425,536 5406,544 5387,550 5369,560 5350,569 5331,578 5312,587 5292,597 5278,606 5259,616 5246,625 5231,635 5217,648 5204,659 5193,667 5180,682 5170,691 5156,706 5146,714 5142,729 5132,739 5123,752 5119,767 5108,776 5103,791 5100,805 5100,814 5095,829 5095,843 5095,852 5089,867 5095,880 5095,895 5095,903 5100,918 5103,933 5108,941 5113,956 5119,971 5127,980 5132,994 5142,1007 5151,1018 5161,1032 5170,1041 5185,1056 5193,1065 5208,1074 5223,1088 5236,1098 5250,1107 5265,1117 5283,1126 5297,1141 5316,1149 5335,1154 5355,1164 5374,1173 5393,1183 5412,1192 5429,1196 5454,1207 5478,1212 5497,1220 5520,1226 5544,1230 5567,1239 "
       style="fill:none;stroke:#cccccc;stroke-width:8;stroke-linecap:butt;stroke-linejoin:round"
       id="polyline160" />
    <polyline
       transform="translate(172.77951,165.11657)"
       points="5832,451 5832,455 5837,455 5841,459 5845,465 5850,474 5856,483 5864,497 5869,512 5875,527 5879,544 5883,563 5888,582 5892,606 5898,629 5903,654 5907,682 5911,710 5917,744 5922,776 5930,810 5935,843 5941,880 5945,918 5949,960 5954,999 5960,1041 5964,1088 5968,1130 5973,1177 5979,1226 5983,1273 5987,1324 5992,1372 5996,1423 6002,1476 6007,1532 6011,1585 6015,1640 6015,1693 6020,1750 6026,1806 6029,1863 6034,1925 6034,1982 6039,2037 6045,2099 6045,2156 6049,2218 6053,2274 6053,2335 6058,2392 6058,2454 6064,2511 6064,2572 6068,2628 6068,2689 6068,2747 6072,2804 6072,2859 6072,2917 6072,2974 6072,3029 6077,3082 6077,3139 6077,3191 6077,3243 6077,3295 6077,3346 6077,3399 6077,3445 6077,3492 6072,3541 6072,3583 6072,3630 6072,3673 6068,3711 6068,3753 6068,3791 6064,3828 6064,3866 6058,3900 6058,3932 6053,3961 6053,3993 6049,4017 6049,4046 6045,4070 6039,4093 6039,4117 6034,4136 6029,4150 6026,4169 6026,4182 6020,4193 6015,4202 6011,4211 6007,4221 6002,4225 5996,4225 5992,4229 "
       style="fill:none;stroke:#cccccc;stroke-width:8;stroke-linecap:butt;stroke-linejoin:round"
       id="polyline172" />
    <polyline
       transform="translate(172.77951,165.11657)"
       points="4083,1854 4078,1882 4074,1910 4070,1944 4070,1971 4070,1999 4074,2029 4078,2056 4083,2085 4089,2114 4097,2141 4112,2171 4127,2199 4140,2226 4155,2256 4174,2284 4193,2311 4216,2335 4240,2364 4263,2388 4291,2415 4320,2439 4348,2462 4382,2487 4414,2511 4448,2534 4486,2558 4522,2581 4560,2600 4598,2623 4641,2643 4683,2662 4726,2681 4773,2700 4820,2719 4868,2732 4915,2751 4962,2766 5015,2780 5066,2793 5119,2808 5170,2817 5223,2832 5278,2840 5331,2851 5387,2859 5444,2865 5497,2874 5552,2878 5609,2883 5671,2889 5728,2893 5784,2893 5841,2897 5898,2897 5960,2897 6015,2897 6072,2893 6130,2893 6191,2889 6247,2883 6303,2874 6361,2870 6412,2865 6470,2855 6527,2846 6578,2836 6635,2823 6686,2812 6739,2798 6790,2785 6837,2770 6890,2755 6937,2742 6984,2723 7032,2708 7079,2689 7122,2670 7164,2651 7207,2634 7249,2609 7287,2591 7324,2566 7362,2543 7396,2524 7428,2500 7461,2473 7489,2449 7523,2426 7546,2402 7574,2373 7598,2349 7623,2322 7640,2292 7659,2265 7678,2241 7692,2213 7708,2184 7721,2156 7731,2128 7740,2099 7744,2071 7750,2037 7755,2010 7755,1982 7755,1952 7750,1925 7744,1897 7740,1854 "
       style="fill:none;stroke:#cccccc;stroke-width:8;stroke-linecap:butt;stroke-linejoin:round"
       id="polyline174" />
    <polyline
       transform="translate(172.77951,165.11657)"
       points="5733,938 5746,938 5760,941 5771,941 5784,946 5794,946 5807,946 5822,952 5837,952 5845,952 5860,952 5875,956 5888,956 5903,956 5911,956 5926,956 5941,956 5954,956 5964,952 5979,952 5992,952 6007,952 6015,946 6029,946 6045,946 6053,941 6068,941 6081,938 6092,933 6106,933 6114,928 6130,928 6138,922 6149,918 6162,914 6172,909 6181,903 6191,903 6200,899 6209,895 6219,890 6228,886 6238,880 6247,871 6253,867 6261,861 6266,856 6276,852 6281,848 6285,837 6295,833 6300,829 6303,824 6308,814 6313,810 6319,805 6319,795 6323,791 6323,782 6327,776 6327,771 6332,763 6332,758 6332,752 6332,744 6332,739 6332,729 6332,725 6327,720 6327,710 6323,706 6323,697 6319,691 6313,686 6313,678 6308,672 6303,667 6300,659 6289,654 6285,648 6281,644 6270,635 6266,629 6257,625 6253,621 6242,616 6234,612 6228,606 6219,602 6209,597 6200,593 6191,587 6177,582 6167,578 6157,574 6149,569 6134,569 6124,563 6114,560 6100,560 6092,555 6077,550 6064,550 6053,544 6039,544 6029,540 6015,540 6002,540 5987,540 5979,536 5964,536 5949,536 5935,536 5922,536 5911,536 5898,536 5883,536 5869,536 5860,536 5845,536 5832,540 5818,540 5807,540 5794,544 5779,544 5771,544 5756,550 5741,550 5733,555 5718,560 5709,560 5694,563 5686,569 5675,574 5661,574 5652,578 5643,582 5633,587 5624,593 5614,597 5605,602 5595,606 5586,612 5576,616 5571,621 5563,625 5558,635 5548,640 5544,644 5539,648 5529,654 5524,663 5520,667 5516,672 5510,682 5505,686 5505,691 5501,701 5501,706 5497,710 5497,720 5491,725 5491,733 5491,739 5491,744 5491,752 5491,758 5491,767 5497,771 5497,776 5501,786 5501,791 5505,795 5510,805 5510,810 5516,814 5520,824 5524,829 5533,833 5539,843 5544,848 5552,852 5558,856 5567,861 5571,871 5582,875 5590,880 5595,886 5605,890 5614,895 5624,899 5633,903 5648,909 5656,914 5667,914 5675,918 5690,922 5699,928 5709,928 5722,933 5733,938 "
       style="fill:none;stroke:#cccccc;stroke-width:8;stroke-linecap:butt;stroke-linejoin:round"
       id="polyline176" />
    <polyline
       transform="translate(172.77951,165.11657)"
       points="5571,478 5590,478 5609,478 5629,478 5648,483 5661,489 5680,493 5703,502 5722,517 5741,527 5760,540 5779,560 5798,574 5822,593 5841,616 5860,640 5879,663 5903,686 5922,714 5941,749 5964,776 5983,810 6002,843 6020,880 6045,918 6064,956 6081,994 6100,1037 6119,1079 6138,1122 6157,1169 6177,1212 6196,1258 6215,1306 6234,1358 6247,1404 6266,1457 6285,1508 6300,1561 6313,1617 6332,1670 6346,1725 6361,1782 6374,1835 6389,1891 6404,1949 6417,2010 6427,2067 6441,2122 6450,2180 6465,2241 6474,2298 6483,2360 6492,2415 6502,2473 6508,2534 6516,2591 6521,2647 6531,2704 6535,2761 6540,2817 6544,2874 6550,2931 6550,2987 6555,3040 6555,3096 6559,3149 6559,3199 6559,3252 6559,3303 6555,3352 6555,3399 6550,3450 6550,3492 6544,3541 6540,3583 6535,3626 6531,3668 6521,3711 6516,3748 6508,3785 6502,3823 6492,3857 6483,3889 6474,3923 6465,3951 6450,3980 6441,4008 6427,4032 6417,4055 6404,4078 6389,4097 6374,4117 6361,4131 6346,4150 6332,4160 6319,4174 6300,4182 6285,4187 6266,4197 6253,4202 "
       style="fill:none;stroke:#cccccc;stroke-width:8;stroke-linecap:butt;stroke-linejoin:round"
       id="polyline186" />
    <circle
       cx="7240.5645"
       cy="2329.7615"
       r="47"
       style="fill:#999999;stroke:#999999;stroke-width:8"
       id="circle216" />
    <circle
       cx="6937.6787"
       cy="3270.1829"
       r="47.000004"
       style="fill:#999999;stroke:#999999;stroke-width:8"
       id="circle216-3" />
    <circle
       cx="6150.0195"
       cy="2897.0938"
       r="47.000004"
       style="fill:#999999;stroke:#999999;stroke-width:8"
       id="circle216-3-1" />
    <circle
       cx="6821.3628"
       cy="2729.2578"
       r="47.000004"
       style="fill:#999999;stroke:#999999;stroke-width:8"
       id="circle216-3-1-4" />
    <circle
       cx="7251.0225"
       cy="2930.6606"
       r="47.000004"
       style="fill:#999999;stroke:#999999;stroke-width:8"
       id="circle216-3-1-4-9" />
  </g>
</svg>
