<?xml version="1.0" encoding="UTF-8" standalone="no"?>
<!-- Created with Inkscape (http://www.inkscape.org/) -->

<svg
   xmlns:dc="http://purl.org/dc/elements/1.1/"
   xmlns:cc="http://creativecommons.org/ns#"
   xmlns:rdf="http://www.w3.org/1999/02/22-rdf-syntax-ns#"
   xmlns:svg="http://www.w3.org/2000/svg"
   xmlns="http://www.w3.org/2000/svg"
   xmlns:sodipodi="http://sodipodi.sourceforge.net/DTD/sodipodi-0.dtd"
   xmlns:inkscape="http://www.inkscape.org/namespaces/inkscape"
   width="102.79787mm"
   height="82.174202mm"
   viewBox="0 0 102.79787 82.174202"
   version="1.1"
   id="svg8859"
   inkscape:version="0.92.2 (5c3e80d, 2017-08-06)"
   sodipodi:docname="triaxial.svg"
   inkscape:export-filename="/home/javier/CARTO/2018-1/apunte-datum/imgs/triaxial.png"
   inkscape:export-xdpi="149.9817"
   inkscape:export-ydpi="149.9817">
  <defs
     id="defs8853" />
  <sodipodi:namedview
     id="base"
     pagecolor="#ffffff"
     bordercolor="#666666"
     borderopacity="1.0"
     inkscape:pageopacity="0.0"
     inkscape:pageshadow="2"
     inkscape:zoom="0.98994949"
     inkscape:cx="244.47818"
     inkscape:cy="125.11985"
     inkscape:document-units="mm"
     inkscape:current-layer="layer1"
     showgrid="false"
     fit-margin-top="0"
     fit-margin-left="0"
     fit-margin-right="0"
     fit-margin-bottom="0"
     inkscape:window-width="1360"
     inkscape:window-height="715"
     inkscape:window-x="0"
     inkscape:window-y="24"
     inkscape:window-maximized="1" />
  <metadata
     id="metadata8856">
    <rdf:RDF>
      <cc:Work
         rdf:about="">
        <dc:format>image/svg+xml</dc:format>
        <dc:type
           rdf:resource="http://purl.org/dc/dcmitype/StillImage" />
        <dc:title></dc:title>
      </cc:Work>
    </rdf:RDF>
  </metadata>
  <g
     inkscape:label="Capa 1"
     inkscape:groupmode="layer"
     id="layer1"
     transform="translate(3.0179861,-48.025993)">
    <polyline
       id="polyline10"
       style="fill:#ffffff;stroke:#000000;stroke-width:18.37753296;stroke-linecap:butt;stroke-linejoin:round;stroke-miterlimit:4;stroke-dasharray:none"
       points="11696,7325 11696,7274 11692,7223 11687,7170 11678,7119 11664,7066 11649,7015 11630,6962 11611,6911 11588,6858 11564,6807 11537,6754 11508,6703 11475,6650 11437,6599 11399,6552 11361,6499 11319,6452 11271,6405 11224,6358 11177,6310 11125,6263 11074,6216 11016,6174 10959,6131 10898,6089 10837,6046 10775,6004 10709,5966 10643,5928 10577,5889 10506,5851 10435,5819 10359,5781 10289,5753 10213,5719 10133,5692 10057,5662 9977,5634 9897,5612 9816,5583 9736,5564 9651,5541 9571,5522 9485,5503 9400,5488 9315,5469 9230,5460 9145,5445 9060,5437 8975,5426 8890,5423 8805,5418 8720,5413 8635,5407 8550,5407 8465,5413 8380,5413 8300,5418 8215,5423 8134,5432 8054,5441 7974,5450 7893,5465 7818,5479 7737,5492 7662,5511 7591,5530 7516,5554 7445,5573 7374,5596 7308,5620 7241,5649 7175,5677 7114,5706 7053,5739 6991,5766 6934,5800 6878,5838 6826,5870 6774,5908 6726,5947 6679,5985 6632,6027 6590,6070 6552,6112 6514,6155 6476,6197 6443,6245 6415,6287 6386,6333 6363,6382 6339,6429 6320,6480 6301,6528 6287,6580 6274,6626 6264,6679 6259,6730 6254,6783 6254,6834 6254,6887 6259,6939 6264,6991 6274,7043 6287,7095 6301,7147 6320,7198 6339,7251 6363,7302 6386,7355 6415,7406 6443,7459 6476,7510 6514,7563 6552,7610 6590,7661 6632,7709 6679,7756 6726,7803 6774,7850 6826,7898 6878,7945 6934,7988 6991,8030 7053,8073 7114,8115 7175,8158 7241,8196 7308,8234 7374,8270 7445,8308 7516,8342 7591,8380 7662,8408 7737,8440 7818,8470 7893,8497 7974,8525 8054,8550 8134,8578 8215,8597 8300,8621 8380,8640 8465,8659 8550,8672 8635,8691 8720,8701 8805,8714 8890,8725 8975,8733 9060,8739 9145,8744 9230,8748 9315,8752 9400,8752 9485,8748 9571,8748 9651,8744 9736,8739 9816,8729 9897,8720 9977,8710 10057,8696 10133,8682 10213,8667 10289,8648 10359,8629 10435,8606 10506,8587 10577,8563 10643,8540 10709,8512 10775,8483 10837,8455 10898,8422 10959,8393 11016,8361 11074,8323 11125,8289 11177,8251 11224,8215 11271,8177 11319,8134 11361,8092 11399,8049 11437,8007 11475,7964 11508,7917 11537,7874 11564,7826 11588,7780 11611,7733 11630,7680 11649,7634 11664,7582 11678,7533 11687,7482 11692,7429 11696,7378 11696,7325 "
       transform="matrix(0.01729093,0,0,0.01729093,-110.99658,-21.288904)" />
    <polyline
       id="polyline16"
       style="fill:none;stroke:#000000;stroke-width:9.1811161;stroke-linecap:butt;stroke-linejoin:round;stroke-miterlimit:4;stroke-dasharray:none"
       points="9594,5526 9575,5522 9552,5522 9533,5522 9509,5522 9485,5522 9462,5526 9438,5530 9415,5541 9391,5545 9363,5554 9339,5569 9315,5583 9287,5596 9259,5612 9235,5630 9207,5645 9179,5668 9150,5687 9122,5711 9093,5734 9070,5762 9041,5785 9013,5815 8985,5843 8956,5876 8928,5908 8900,5942 8871,5974 8843,6008 8815,6046 8786,6083 8759,6121 8734,6159 8706,6202 8678,6240 8654,6282 8626,6325 8602,6367 8574,6410 8550,6456 8527,6503 8498,6546 8474,6594 8456,6641 8432,6688 8408,6735 8385,6783 8366,6830 8347,6881 8328,6930 8304,6977 8290,7028 8271,7076 8253,7123 8238,7174 8219,7223 8205,7270 8191,7321 8177,7369 8167,7416 8153,7463 8144,7510 8134,7558 8125,7605 8115,7652 8106,7695 8101,7741 8097,7784 8087,7826 8087,7869 8082,7911 8078,7954 8078,7992 8078,8034 8078,8073 8078,8111 8082,8143 8082,8181 8087,8215 8092,8247 8097,8281 8101,8308 8111,8342 8120,8370 8130,8393 8139,8422 8148,8446 8158,8470 8172,8489 8186,8512 8196,8531 8215,8544 8229,8563 8243,8578 8262,8593 8276,8602 8296,8611 8314,8621 8333,8629 8356,8635 "
       transform="matrix(0.01729093,0,0,0.01729093,-110.99658,-21.288904)" />
    <polyline
       id="polyline30"
       style="fill:none;stroke:#000000;stroke-width:9.1811161;stroke-linecap:butt;stroke-linejoin:round;stroke-miterlimit:4;stroke-dasharray:none"
       points="6561,6097 6590,6065 6623,6036 6656,6013 6693,5985 6731,5961 6769,5937 6811,5913 6859,5889 6906,5870 6953,5851 7005,5834 7057,5819 7114,5800 7171,5785 7227,5772 7289,5762 7350,5753 7411,5743 7478,5734 7544,5730 7610,5724 7681,5719 7752,5715 7822,5715 7893,5715 7969,5715 8040,5719 8120,5724 8196,5730 8271,5734 8352,5743 8427,5753 8508,5762 8588,5777 8668,5791 8748,5804 8829,5819 8909,5838 8990,5857 9070,5876 9150,5895 9230,5919 9311,5942 9391,5966 9471,5989 9547,6017 9627,6046 9703,6074 9783,6102 9859,6136 9934,6163 10010,6197 10081,6229 10152,6263 10222,6301 10293,6333 10364,6371 10430,6410 10496,6448 10563,6485 10624,6522 10685,6560 10742,6603 10804,6641 10855,6684 10912,6726 10964,6769 11011,6807 11063,6849 11106,6892 11153,6934 11196,6977 11233,7019 11271,7066 11304,7108 11337,7151 11370,7193 11399,7236 11422,7278 11446,7321 11465,7363 11484,7406 11503,7445 11517,7487 11526,7529 11537,7567 11541,7610 11545,7648 11545,7685 11541,7722 11541,7760 11531,7799 11522,7837 11512,7869 11498,7903 11479,7941 11460,7973 11437,8002 11413,8034 11390,8062 "
       transform="matrix(0.01729093,0,0,0.01729093,-110.99658,-21.288904)" />
    <polyline
       id="polyline36"
       style="fill:none;stroke:#000000;stroke-width:9.1811161;stroke-linecap:butt;stroke-linejoin:round;stroke-miterlimit:4;stroke-dasharray:none"
       points="6268,6650 6278,6613 6292,6575 6301,6541 6320,6503 6339,6471 6359,6434 6386,6399 6410,6367 6438,6333 6471,6301 6504,6272 6542,6240 6580,6212 6623,6182 6665,6155 6712,6125 6760,6102 6811,6078 6864,6055 6920,6032 6977,6008 7034,5989 7096,5966 7156,5947 7222,5932 7289,5913 7355,5900 7426,5886 7492,5870 7567,5862 7638,5851 7714,5843 7790,5834 7870,5823 7945,5819 8026,5815 8106,5815 8186,5809 8271,5809 8352,5809 8437,5815 8517,5815 8602,5819 8687,5823 8772,5834 8857,5838 8942,5847 9027,5862 9112,5870 9197,5886 9282,5900 9367,5913 9453,5928 9538,5947 9618,5966 9703,5985 9783,6008 9863,6027 9944,6051 10024,6074 10100,6102 10180,6125 10256,6155 10331,6182 10402,6212 10473,6240 10544,6267 10615,6301 10681,6333 10747,6367 10808,6399 10870,6434 10931,6467 10988,6503 11044,6537 11101,6575 11153,6613 11201,6650 11248,6688 11295,6726 11337,6764 11380,6802 11418,6839 11455,6881 11489,6919 11517,6958 11545,7000 11574,7038 11597,7081 11616,7119 11635,7161 11649,7198 11664,7236 11673,7278 11682,7317 11687,7355 11687,7397 11687,7435 11687,7472 11682,7510 "
       transform="matrix(0.01729093,0,0,0.01729093,-110.99658,-21.288904)" />
    <polyline
       id="polyline42"
       style="fill:none;stroke:#000000;stroke-width:9.1811161;stroke-linecap:butt;stroke-linejoin:round;stroke-miterlimit:4;stroke-dasharray:none"
       points="6359,7293 6339,7255 6330,7217 6316,7180 6311,7137 6306,7100 6301,7062 6301,7023 6306,6985 6311,6948 6316,6911 6330,6868 6339,6830 6359,6792 6377,6759 6396,6722 6419,6684 6448,6645 6476,6613 6504,6575 6537,6541 6575,6503 6613,6471 6656,6437 6698,6405 6741,6376 6788,6344 6840,6314 6892,6282 6944,6254 7000,6225 7057,6197 7114,6174 7175,6144 7241,6121 7303,6097 7369,6074 7440,6055 7511,6032 7582,6013 7652,5993 7728,5980 7799,5961 7875,5947 7955,5932 8030,5919 8111,5908 8191,5895 8271,5886 8352,5881 8437,5870 8517,5866 8602,5862 8682,5857 8767,5851 8852,5851 8937,5851 9018,5851 9103,5857 9188,5862 9273,5866 9353,5870 9438,5876 9519,5886 9604,5895 9685,5908 9764,5919 9844,5932 9920,5947 10001,5961 10076,5980 10152,5993 10227,6013 10303,6032 10374,6055 10444,6074 10515,6097 10582,6121 10648,6144 10714,6174 10775,6197 10837,6225 10898,6254 10955,6282 11011,6310 11063,6344 11116,6371 11163,6405 11210,6437 11257,6471 11300,6503 11337,6541 11375,6575 11413,6607 11446,6645 11479,6684 11508,6717 11531,6754 11555,6792 11574,6830 11593,6868 "
       transform="matrix(0.01729093,0,0,0.01729093,-110.99658,-21.288904)" />
    <polyline
       id="polyline48"
       style="fill:none;stroke:#000000;stroke-width:8;stroke-linecap:butt;stroke-linejoin:round"
       points="6764,7845 6731,7813 6703,7780 6675,7746 6651,7714 6627,7680 6604,7643 6590,7610 6571,7571 6556,7539 6548,7501 6537,7463 6528,7425 6523,7387 6523,7350 6523,7312 6528,7270 6533,7232 6542,7193 6552,7155 6561,7113 6580,7076 6594,7038 6613,6996 6637,6958 6660,6919 6689,6877 6717,6839 6750,6802 6783,6764 6816,6726 6854,6688 6892,6650 6934,6613 6977,6580 7024,6541 7071,6503 7123,6471 7175,6437 7227,6405 7279,6371 7336,6339 7397,6306 7454,6278 7516,6248 7582,6216 7643,6187 7709,6163 7775,6136 7841,6112 7912,6089 7983,6065 8054,6040 8125,6017 8196,5998 8271,5980 8347,5961 8418,5942 8493,5928 8569,5913 8645,5900 8725,5886 8801,5876 8876,5866 8956,5857 9032,5847 9108,5843 9183,5834 9264,5834 9339,5828 9415,5828 9490,5828 9566,5828 9637,5828 9712,5834 9788,5838 9859,5843 9930,5847 10001,5857 10071,5866 10137,5876 10204,5889 10270,5904 10337,5919 10397,5932 10464,5947 10520,5966 10582,5985 10638,6004 10696,6023 10747,6046 10799,6070 10851,6093 10898,6117 10945,6144 10993,6169 11035,6197 11074,6225 11116,6254 11148,6287 11186,6314 "
       transform="matrix(0.01729093,0,0,0.01729093,-110.99658,-21.288904)" />
    <polyline
       id="polyline54"
       style="fill:none;stroke:#000000;stroke-width:9.1811161;stroke-linecap:butt;stroke-linejoin:round;stroke-miterlimit:4;stroke-dasharray:none"
       points="7303,8234 7265,8209 7232,8185 7199,8162 7166,8139 7138,8111 7109,8087 7081,8058 7057,8026 7034,7996 7011,7969 6991,7935 6977,7903 6963,7869 6949,7832 6939,7799 6930,7760 6920,7728 6915,7690 6915,7652 6911,7614 6915,7571 6915,7533 6920,7496 6930,7454 6939,7416 6949,7374 6963,7331 6977,7289 6996,7251 7015,7208 7038,7166 7057,7123 7086,7081 7109,7038 7138,6996 7171,6953 7204,6915 7237,6873 7270,6830 7308,6788 7350,6750 7388,6708 7430,6669 7474,6626 7520,6588 7567,6552 7615,6509 7662,6471 7714,6437 7766,6399 7818,6363 7875,6329 7931,6297 7983,6259 8045,6225 8101,6197 8158,6163 8219,6136 8281,6102 8342,6074 8404,6051 8465,6023 8531,5998 8593,5974 8659,5951 8720,5928 8786,5908 8852,5889 8914,5870 8980,5851 9046,5838 9108,5819 9174,5809 9240,5796 9301,5785 9367,5772 9429,5766 9490,5758 9556,5753 9618,5748 9679,5743 9741,5743 9797,5743 9859,5743 9916,5743 9972,5748 10029,5753 10085,5758 10137,5766 10190,5772 10241,5781 10293,5796 10341,5804 10393,5819 10435,5834 10482,5851 10525,5870 10567,5886 10611,5908 10648,5928 "
       transform="matrix(0.01729093,0,0,0.01729093,-110.99658,-21.288904)" />
    <polyline
       id="polyline60"
       style="fill:none;stroke:#000000;stroke-width:9.1811161;stroke-linecap:butt;stroke-linejoin:round;stroke-miterlimit:4;stroke-dasharray:none"
       points="7846,8483 7813,8470 7780,8455 7752,8440 7723,8422 7695,8404 7671,8385 7648,8366 7624,8342 7601,8319 7582,8295 7563,8270 7544,8243 7525,8215 7511,8185 7497,8158 7487,8124 7478,8092 7468,8058 7459,8026 7454,7988 7449,7954 7445,7917 7445,7879 7445,7841 7445,7803 7445,7760 7449,7722 7459,7680 7463,7637 7474,7595 7482,7552 7497,7510 7511,7467 7525,7421 7539,7378 7559,7331 7577,7289 7596,7240 7619,7198 7643,7151 7667,7104 7690,7062 7719,7015 7748,6966 7775,6924 7808,6877 7837,6834 7870,6788 7903,6745 7941,6698 7974,6656 8011,6613 8049,6571 8092,6528 8130,6485 8172,6443 8211,6405 8253,6363 8296,6325 8338,6287 8385,6248 8427,6212 8474,6174 8522,6140 8564,6102 8611,6070 8659,6040 8706,6008 8753,5980 8801,5947 8848,5919 8900,5895 8948,5866 8994,5843 9041,5819 9089,5800 9141,5777 9188,5758 9235,5739 9282,5724 9330,5706 9377,5692 9419,5681 9467,5668 9514,5658 9556,5649 9604,5645 9646,5639 9689,5634 9731,5630 9774,5630 9811,5630 9854,5630 9892,5634 9930,5634 9967,5645 10005,5649 10038,5658 10071,5668 10104,5677 "
       transform="matrix(0.01729093,0,0,0.01729093,-110.99658,-21.288904)" />
    <polyline
       id="polyline66"
       style="fill:none;stroke:#000000;stroke-width:9.1811161;stroke-linecap:butt;stroke-linejoin:round;stroke-miterlimit:4;stroke-dasharray:none"
       points="7497,8332 7544,8355 7596,8380 7648,8404 7700,8422 7756,8446 7808,8465 7865,8483 7926,8502 7983,8521 8045,8540 8101,8555 8163,8574 8229,8587 8290,8602 8352,8616 8418,8629 8485,8645 8545,8654 8611,8667 8678,8678 8744,8687 8810,8696 8881,8701 8948,8710 9013,8714 9079,8720 9145,8725 9211,8729 9278,8729 9344,8733 9411,8733 9476,8733 9542,8729 9604,8729 9670,8729 9731,8725 9793,8720 9854,8714 9916,8706 9972,8701 10033,8691 10090,8682 10148,8672 10204,8663 10256,8654 10308,8640 10359,8629 10411,8616 10454,8602 "
       transform="matrix(0.01729093,0,0,0.01729093,-110.99658,-21.288904)" />
    <polyline
       id="polyline72"
       style="fill:none;stroke:#000000;stroke-width:9.1811161;stroke-linecap:butt;stroke-linejoin:round;stroke-miterlimit:4;stroke-dasharray:none"
       points="6764,7845 6802,7879 6840,7908 6878,7941 6915,7969 6963,7996 7005,8030 7053,8058 7100,8087 7152,8115 7204,8143 7256,8166 7312,8196 7369,8223 7430,8247 7492,8270 7553,8295 7615,8319 7681,8342 7748,8366 7813,8385 7884,8408 7950,8427 8022,8446 8097,8465 8167,8478 8238,8497 8314,8512 8389,8525 8465,8540 8541,8555 8616,8569 8692,8578 8767,8587 8843,8597 8923,8606 8999,8611 9075,8621 9155,8625 9230,8629 9306,8629 9382,8635 9457,8635 9533,8635 9608,8635 9685,8629 9755,8629 9826,8625 9901,8621 9972,8616 10038,8606 10109,8602 10175,8593 10241,8582 10308,8574 10374,8559 10435,8544 10496,8536 10558,8521 10615,8502 10671,8489 10723,8470 10780,8451 10832,8436 10879,8413 10927,8393 10974,8374 11016,8351 11059,8328 11096,8304 11134,8281 11186,8247 "
       transform="matrix(0.01729093,0,0,0.01729093,-110.99658,-21.288904)" />
    <polyline
       id="polyline78"
       style="fill:none;stroke:#000000;stroke-width:9.1811161;stroke-linecap:butt;stroke-linejoin:round;stroke-miterlimit:4;stroke-dasharray:none"
       points="6377,7340 6396,7374 6419,7411 6443,7445 6467,7478 6495,7514 6528,7548 6561,7582 6594,7614 6632,7648 6675,7680 6717,7714 6764,7746 6811,7780 6859,7813 6911,7841 6963,7874 7019,7903 7076,7935 7133,7964 7194,7992 7260,8020 7322,8049 7388,8073 7459,8100 7525,8124 7596,8148 7667,8172 7742,8196 7818,8219 7889,8238 7969,8262 8045,8281 8125,8300 8205,8319 8286,8332 8366,8347 8446,8361 8527,8374 8611,8389 8692,8404 8777,8413 8857,8422 8942,8432 9027,8436 9108,8446 9193,8451 9273,8455 9358,8455 9438,8459 9523,8459 9604,8459 9685,8459 9764,8455 9844,8451 9920,8446 10001,8440 10076,8436 10152,8427 10222,8417 10298,8408 10369,8398 10440,8389 10506,8374 10577,8361 10643,8347 10704,8328 10766,8313 10827,8295 10889,8276 10945,8257 10997,8238 11049,8215 11101,8191 11153,8166 11196,8143 11243,8119 11285,8096 11323,8068 11361,8045 11399,8015 11432,7988 11460,7959 11489,7926 11512,7898 11537,7869 11559,7837 11574,7813 "
       transform="matrix(0.01729093,0,0,0.01729093,-110.99658,-21.288904)" />
    <polyline
       id="polyline84"
       style="fill:none;stroke:#000000;stroke-width:9.1811161;stroke-linecap:butt;stroke-linejoin:round;stroke-miterlimit:4;stroke-dasharray:none"
       points="6254,6834 6254,6868 6259,6900 6264,6939 6274,6972 6287,7009 6301,7043 6320,7081 6339,7119 6363,7151 6386,7189 6415,7223 6443,7259 6476,7293 6514,7325 6552,7363 6590,7397 6632,7429 6679,7463 6726,7496 6774,7529 6826,7563 6878,7595 6934,7629 6991,7656 7053,7690 7114,7718 7175,7746 7241,7775 7308,7803 7374,7832 7445,7856 7516,7884 7591,7908 7662,7930 7737,7954 7818,7977 7893,7996 7974,8020 8054,8039 8134,8058 8215,8073 8300,8092 8380,8106 8465,8119 8550,8134 8635,8148 8720,8158 8805,8172 8890,8181 8975,8185 9060,8196 9145,8200 9230,8204 9315,8209 9400,8215 9485,8215 9571,8215 9651,8215 9736,8215 9816,8209 9897,8204 9977,8200 10057,8196 10133,8185 10213,8181 10289,8172 10359,8158 10435,8148 10506,8134 10577,8119 10643,8106 10709,8092 10775,8073 10837,8058 10898,8039 10959,8020 11016,7996 11074,7977 11125,7954 11177,7930 11224,7908 11271,7884 11319,7856 11361,7832 11399,7803 11437,7775 11475,7746 11508,7718 11537,7690 11564,7656 11588,7629 11611,7595 11630,7563 11649,7529 11664,7496 11678,7463 11687,7429 11692,7397 11696,7363 11696,7325 "
       transform="matrix(0.01729093,0,0,0.01729093,-110.99658,-21.288904)" />
    <polyline
       id="polyline92"
       style="fill:none;stroke:#000000;stroke-width:8;stroke-linecap:butt;stroke-linejoin:round;stroke-dasharray:62, 31, 10, 31"
       points="8975,7081 12188,7826 "
       transform="matrix(0.01729093,0,0,0.01729093,-110.99658,-21.288904)" />
    <polyline
       id="polyline96"
       style="fill:none;stroke:#000000;stroke-width:9.1811161;stroke-linecap:butt;stroke-linejoin:round;stroke-miterlimit:4;stroke-dasharray:none"
       points="8777,6097 8796,6102 8810,6108 8829,6112 8848,6112 8867,6117 8886,6121 8904,6121 8923,6125 8942,6125 8961,6131 8980,6131 8999,6131 9018,6136 9037,6136 9056,6136 9075,6136 9093,6136 9112,6136 9131,6136 9150,6136 9169,6136 9188,6136 9202,6131 9222,6131 9240,6131 9254,6125 9273,6125 9287,6121 9306,6121 9320,6117 9334,6117 9348,6112 9367,6108 9382,6102 9396,6097 9405,6097 9419,6093 9433,6089 9448,6083 9457,6078 9467,6070 9481,6065 9490,6059 9500,6055 9509,6051 9519,6040 9523,6036 9533,6032 9542,6023 9547,6017 9552,6008 9556,6004 9561,5998 9566,5989 9571,5980 9575,5974 9575,5966 9580,5961 9580,5951 9580,5947 9580,5937 9580,5928 9580,5923 9580,5913 9575,5904 9571,5900 9571,5889 9566,5881 9561,5876 9556,5866 9552,5857 9542,5851 9538,5843 9528,5834 9519,5828 9514,5819 9504,5809 9496,5804 9485,5796 9471,5791 9462,5781 9453,5777 9438,5766 9424,5762 9415,5753 9400,5748 9386,5739 9372,5734 9358,5730 9344,5719 9325,5715 9311,5711 9297,5706 9278,5697 9264,5692 9245,5687 9230,5681 9211,5677 9193,5673 9174,5668 9155,5662 9141,5662 9122,5658 9103,5654 9084,5649 9065,5649 9046,5645 9027,5645 9008,5639 8990,5639 8971,5634 8952,5634 8933,5634 8914,5634 8895,5630 8876,5630 8857,5630 8838,5630 8819,5630 8801,5630 8782,5634 8763,5634 8748,5634 8730,5634 8711,5639 8697,5639 8678,5645 8663,5645 8645,5649 8630,5649 8616,5654 8602,5658 8583,5658 8569,5662 8555,5668 8545,5673 8531,5677 8517,5681 8503,5687 8493,5692 8485,5697 8470,5700 8460,5706 8451,5711 8441,5719 8432,5724 8427,5730 8418,5739 8408,5743 8404,5748 8399,5758 8394,5762 8389,5772 8385,5777 8380,5785 8375,5791 8375,5800 8371,5809 8371,5815 8371,5823 8371,5834 8371,5838 8371,5847 8371,5851 8375,5862 8380,5870 8380,5881 8385,5886 8389,5895 8394,5904 8399,5908 8408,5919 8413,5928 8422,5932 8432,5942 8437,5947 8446,5955 8456,5966 8465,5971 8479,5980 8489,5985 8498,5993 8512,5998 8527,6008 8536,6013 8550,6023 8564,6027 8578,6036 8593,6040 8607,6046 8626,6051 8640,6059 8654,6065 8674,6070 8687,6074 8706,6078 8720,6083 8739,6089 8759,6093 8777,6097 "
       transform="matrix(0.01729093,0,0,0.01729093,-110.99658,-21.288904)" />
    <polyline
       id="polyline100"
       style="fill:none;stroke:#000000;stroke-width:8;stroke-linecap:butt;stroke-linejoin:round"
       points="7478,8687 7610,8616 "
       transform="matrix(0.01729093,0,0,0.01729093,-110.99658,-21.288904)" />
    <polyline
       id="polyline108"
       style="fill:none;stroke:#000000;stroke-width:8;stroke-linecap:butt;stroke-linejoin:round"
       points="7478,8687 7539,8550 "
       transform="matrix(0.01729093,0,0,0.01729093,-110.99658,-21.288904)" />
    <polyline
       id="polyline110"
       style="fill:none;stroke:#000000;stroke-width:8;stroke-linecap:butt;stroke-linejoin:round;stroke-dasharray:62, 31, 10, 31"
       points="8975,7081 8975,4010 "
       transform="matrix(0.01729093,0,0,0.01729093,-110.99658,-21.288904)" />
    <polyline
       id="polyline114"
       style="fill:none;stroke:#000000;stroke-width:8;stroke-linecap:butt;stroke-linejoin:round;stroke-dasharray:62, 31, 10, 31"
       points="8975,7081 7478,8687 "
       transform="matrix(0.01729093,0,0,0.01729093,-110.99658,-21.288904)" />
    <polyline
       id="polyline120"
       style="fill:#000000;stroke:#666666;stroke-width:45.90557861;stroke-linecap:butt;stroke-linejoin:miter;stroke-miterlimit:4;stroke-dasharray:none"
       points="8078,8051 8970,7081 "
       transform="matrix(0.01729093,0,0,0.01729093,-110.99658,-21.288904)" />
    <polyline
       id="polyline122"
       style="fill:#000000;stroke:#666666;stroke-width:45.90557861;stroke-linecap:butt;stroke-linejoin:miter;stroke-miterlimit:4;stroke-dasharray:none"
       points="8970,7081 8975,5861 "
       transform="matrix(0.01729093,0,0,0.01729093,-110.99658,-21.288904)" />
    <polyline
       id="polyline126"
       style="fill:#000000;stroke:#666666;stroke-width:45.90557861;stroke-linecap:butt;stroke-linejoin:miter;stroke-miterlimit:4;stroke-dasharray:none"
       points="8970,7086 11556,7685 "
       transform="matrix(0.01729093,0,0,0.01729093,-110.99658,-21.288904)" />
    <polyline
       id="polyline132"
       style="fill:none;stroke:#000000;stroke-width:9.1811161;stroke-linecap:butt;stroke-linejoin:round;stroke-miterlimit:4;stroke-dasharray:none"
       points="8413,6722 8465,6730 8517,6745 8569,6754 8621,6764 8674,6773 8725,6783 8777,6788 8829,6796 8886,6802 8937,6807 8990,6811 9046,6815 9098,6820 9150,6826 9202,6826 9254,6826 9311,6830 9363,6830 9415,6826 9462,6826 9514,6826 9566,6820 9613,6820 9665,6815 9712,6811 9759,6807 9807,6796 9854,6792 9897,6783 9944,6777 9986,6769 10029,6759 10067,6750 10109,6735 10148,6726 10185,6717 10222,6703 10260,6688 10293,6674 10326,6660 10359,6645 10388,6632 10416,6618 10444,6599 10468,6584 10496,6565 10515,6552 10539,6533 10558,6514 10577,6495 10596,6476 10611,6456 10624,6437 10633,6414 10643,6395 10653,6376 10662,6352 10667,6333 10671,6310 10671,6291 10671,6267 10671,6248 10667,6225 10662,6202 10657,6182 10648,6159 10638,6136 10629,6112 10615,6093 10600,6070 10586,6046 10567,6027 10548,6004 10525,5980 10506,5961 10482,5937 10454,5919 10426,5895 10397,5876 10369,5851 10341,5834 10308,5815 10275,5796 10237,5777 10204,5753 10166,5734 10123,5719 10085,5700 10043,5681 10005,5662 9959,5649 9916,5630 9874,5615 9826,5602 9778,5588 9731,5573 9685,5560 9637,5545 9585,5530 9538,5522 9485,5508 9433,5498 9382,5488 9330,5479 9278,5469 9226,5460 9174,5456 9122,5445 9065,5441 9013,5437 8961,5426 8904,5426 8852,5423 8801,5418 8748,5418 8697,5413 8640,5413 8588,5413 8536,5413 8489,5418 8437,5418 8385,5423 8338,5423 8286,5426 8238,5432 8191,5437 8144,5441 8097,5450 8054,5456 8007,5465 7964,5474 7922,5484 7884,5492 7841,5503 7804,5517 7766,5526 7728,5541 7690,5554 7657,5564 7624,5577 7591,5592 7563,5612 7534,5626 7506,5639 7482,5658 7454,5677 7435,5692 7411,5711 7393,5730 7374,5748 7355,5766 7341,5785 7327,5804 7317,5823 7308,5847 7298,5866 7289,5886 7285,5908 7279,5928 7279,5951 7279,5974 7279,5993 7285,6017 7289,6036 7293,6059 7303,6083 7312,6108 7322,6125 7336,6150 7350,6174 7364,6193 7383,6216 7402,6240 7426,6259 7445,6282 7468,6301 7497,6325 7525,6344 7553,6367 7582,6386 7610,6410 7643,6429 7676,6448 7714,6467 7748,6485 7785,6503 7827,6522 7865,6541 7908,6560 7945,6575 7993,6594 8035,6607 8078,6626 8125,6641 8172,6656 8219,6669 8267,6684 8314,6698 8366,6708 8413,6722 "
       transform="matrix(0.01729093,0,0,0.01729093,-110.99658,-21.288904)" />
    <polyline
       id="polyline134"
       style="fill:none;stroke:#000000;stroke-width:8;stroke-linecap:butt;stroke-linejoin:round"
       points="12188,7826 12060,7752 "
       transform="matrix(0.01729093,0,0,0.01729093,-110.99658,-21.288904)" />
    <polyline
       id="polyline138"
       style="fill:none;stroke:#000000;stroke-width:9.1811161;stroke-linecap:butt;stroke-linejoin:round;stroke-miterlimit:4;stroke-dasharray:none"
       points="7615,5526 7652,5517 7690,5508 7728,5503 7771,5498 7813,5498 7856,5498 7898,5498 7941,5498 7988,5503 8035,5508 8082,5517 8130,5526 8182,5535 8233,5545 8281,5560 8333,5573 8385,5592 8441,5607 8493,5626 8545,5649 8602,5668 8654,5692 8711,5719 8767,5743 8819,5772 8876,5800 8933,5828 8990,5862 9046,5895 9098,5928 9155,5961 9211,5998 9268,6032 9320,6070 9377,6112 9429,6150 9485,6193 9538,6235 9589,6272 9641,6320 9693,6363 9745,6405 9793,6452 9844,6499 9892,6546 9939,6594 9986,6641 10029,6688 10076,6735 10119,6783 10161,6834 10199,6881 10241,6934 10279,6981 10317,7034 10350,7081 10388,7132 10422,7180 10449,7232 10482,7278 10511,7331 10539,7378 10563,7425 10586,7472 10611,7525 10629,7571 10653,7618 10667,7661 10685,7709 10700,7756 10709,7799 10723,7845 10733,7888 10738,7930 10742,7969 10747,8011 10752,8054 10752,8092 10752,8130 10747,8166 10742,8200 10738,8234 10728,8266 10719,8300 10704,8332 10690,8361 10676,8389 10662,8417 10643,8446 10619,8470 10600,8493 10577,8512 10553,8536 10525,8555 10496,8569 10468,8587 10435,8602 10402,8616 10369,8625 10337,8635 "
       transform="matrix(0.01729093,0,0,0.01729093,-110.99658,-21.288904)" />
    <polyline
       id="polyline148"
       style="fill:none;stroke:#000000;stroke-width:9.1811161;stroke-linecap:butt;stroke-linejoin:round;stroke-miterlimit:4;stroke-dasharray:none"
       points="8583,6391 8621,6399 8654,6410 8692,6414 8730,6424 8763,6429 8801,6434 8838,6437 8876,6443 8914,6448 8948,6452 8985,6456 9022,6456 9060,6461 9098,6461 9137,6467 9169,6467 9207,6467 9245,6467 9278,6467 9315,6467 9348,6467 9386,6461 9419,6461 9453,6456 9485,6452 9523,6452 9552,6448 9585,6443 9618,6437 9646,6429 9679,6424 9708,6418 9736,6410 9764,6405 9793,6395 9816,6386 9844,6382 9868,6371 9892,6363 9916,6352 9939,6339 9959,6329 9977,6320 9996,6310 10015,6297 10033,6287 10048,6272 10062,6259 10076,6248 10090,6235 10100,6221 10114,6206 10123,6193 10128,6178 10137,6163 10142,6150 10148,6136 10152,6121 10156,6108 10156,6093 10156,6078 10156,6059 10152,6046 10152,6032 10148,6017 10142,6004 10133,5985 10123,5971 10119,5955 10104,5937 10095,5923 10081,5908 10071,5895 10052,5876 10038,5862 10024,5847 10005,5834 9986,5819 9967,5804 9944,5791 9925,5777 9901,5762 9878,5748 9854,5734 9830,5719 9802,5706 9774,5697 9750,5681 9722,5668 9689,5658 9660,5645 9632,5634 9599,5626 9566,5612 9533,5602 9500,5592 9467,5583 9433,5573 9400,5564 9367,5554 9330,5550 9297,5541 9259,5535 9222,5526 9188,5522 9150,5517 9112,5511 9075,5508 9037,5503 9004,5498 8966,5492 8928,5488 8890,5488 8852,5484 8815,5484 8782,5484 8744,5484 8706,5484 8674,5484 8635,5484 8602,5484 8564,5488 8531,5488 8498,5492 8465,5492 8427,5498 8399,5503 8366,5508 8333,5511 8304,5517 8271,5526 8243,5530 8215,5541 8186,5545 8158,5554 8134,5560 8106,5569 8082,5577 8059,5588 8035,5596 8011,5607 7993,5620 7974,5630 7955,5639 7937,5654 7917,5662 7903,5677 7889,5687 7875,5700 7860,5715 7851,5730 7837,5743 7827,5753 7822,5766 7813,5781 7808,5796 7804,5815 7799,5828 7794,5843 7794,5857 7794,5870 7794,5886 7799,5904 7799,5919 7804,5932 7808,5947 7818,5966 7827,5980 7832,5993 7846,6008 7856,6027 7870,6040 7879,6055 7898,6070 7912,6089 7926,6102 7945,6117 7964,6131 7983,6144 8007,6159 8026,6174 8049,6187 8073,6202 8097,6216 8120,6229 8148,6245 8177,6254 8200,6267 8229,6282 8262,6291 8290,6306 8319,6314 8352,6325 8385,6339 8418,6348 8451,6358 8485,6367 8517,6376 8550,6386 8583,6391 "
       transform="matrix(0.01729093,0,0,0.01729093,-110.99658,-21.288904)" />
    <polyline
       id="polyline150"
       style="fill:none;stroke:#000000;stroke-width:8;stroke-linecap:butt;stroke-linejoin:round"
       points="12188,7826 12037,7841 "
       transform="matrix(0.01729093,0,0,0.01729093,-110.99658,-21.288904)" />
    <polyline
       id="polyline154"
       style="fill:none;stroke:#000000;stroke-width:9.1811161;stroke-linecap:butt;stroke-linejoin:round;stroke-miterlimit:4;stroke-dasharray:none"
       points="7067,5730 7104,5711 7147,5692 7189,5677 7232,5662 7279,5649 7327,5639 7374,5630 7426,5620 7478,5615 7530,5607 7582,5602 7638,5602 7700,5602 7756,5602 7818,5602 7879,5607 7941,5612 8002,5615 8068,5626 8134,5630 8196,5645 8267,5654 8333,5668 8399,5681 8470,5697 8536,5715 8607,5734 8678,5753 8748,5777 8819,5800 8890,5823 8961,5847 9027,5870 9098,5900 9169,5928 9240,5961 9311,5989 9382,6023 9448,6055 9519,6089 9585,6125 9656,6159 9722,6197 9788,6235 9854,6272 9920,6314 9982,6352 10043,6395 10104,6437 10166,6476 10227,6518 10284,6565 10341,6607 10397,6650 10449,6698 10501,6741 10553,6788 10605,6834 10653,6877 10700,6924 10742,6972 10785,7019 10827,7066 10865,7108 10903,7155 10936,7204 10974,7251 11002,7297 11030,7340 11059,7387 11087,7435 11111,7478 11130,7525 11148,7567 11167,7610 11182,7652 11196,7695 11205,7737 11215,7780 11219,7823 11224,7860 11224,7898 11224,7935 11219,7973 11215,8011 11210,8049 11201,8081 11186,8115 11172,8148 11159,8181 11139,8209 11120,8243 11096,8270 11074,8295 11044,8323 11016,8347 10988,8370 10955,8393 10922,8413 10885,8432 "
       transform="matrix(0.01729093,0,0,0.01729093,-110.99658,-21.288904)" />
    <polyline
       id="polyline164"
       style="fill:none;stroke:#000000;stroke-width:8;stroke-linecap:butt;stroke-linejoin:round"
       points="9112,5441 9108,5441 9103,5445 9098,5445 9093,5450 9084,5460 9079,5469 9075,5479 9070,5488 9065,5503 9060,5517 9051,5530 9046,5550 9041,5569 9037,5592 9027,5612 9022,5634 9018,5662 9008,5687 9004,5715 8999,5743 8990,5777 8985,5804 8980,5838 8971,5876 8966,5908 8961,5947 8952,5985 8948,6023 8937,6059 8933,6102 8928,6144 8923,6187 8914,6229 8909,6278 8904,6320 8895,6367 8890,6414 8886,6461 8881,6509 8876,6556 8867,6607 8862,6656 8857,6708 8852,6754 8848,6807 8843,6858 8838,6911 8833,6958 8829,7009 8824,7062 8819,7113 8815,7166 8815,7217 8810,7270 8805,7317 8801,7369 8801,7421 8796,7472 8791,7520 8791,7567 8786,7618 8786,7667 8782,7714 8782,7760 8782,7807 8777,7856 8777,7898 8777,7945 8772,7988 8772,8030 8772,8073 8772,8111 8772,8148 8772,8191 8772,8228 8772,8262 8772,8300 8772,8332 8777,8366 8777,8393 8777,8427 8782,8455 8782,8483 8782,8508 8786,8531 8786,8555 8791,8578 8791,8597 8796,8616 8801,8635 8801,8648 8805,8663 8810,8678 8815,8687 8819,8696 8819,8706 8824,8710 8829,8714 8833,8720 8838,8720 "
       transform="matrix(0.01729093,0,0,0.01729093,-110.99658,-21.288904)" />
    <polyline
       id="polyline166"
       style="fill:none;stroke:#000000;stroke-width:9.1811161;stroke-linecap:butt;stroke-linejoin:round;stroke-miterlimit:4;stroke-dasharray:none"
       points="6377,6348 6363,6382 6349,6414 6339,6448 6330,6480 6325,6514 6320,6546 6320,6580 6325,6613 6330,6645 6339,6684 6349,6717 6359,6750 6377,6788 6391,6820 6415,6854 6438,6892 6462,6924 6490,6958 6519,6996 6552,7028 6590,7062 6627,7095 6665,7128 6708,7161 6755,7193 6797,7227 6849,7259 6901,7293 6953,7321 7005,7355 7062,7382 7123,7411 7185,7440 7246,7467 7308,7496 7374,7525 7445,7548 7511,7576 7582,7599 7652,7624 7728,7648 7799,7667 7875,7690 7950,7709 8030,7728 8106,7746 8186,7765 8267,7784 8347,7799 8427,7813 8512,7826 8593,7841 8678,7850 8759,7865 8843,7874 8923,7884 9008,7888 9093,7898 9174,7903 9259,7908 9339,7911 9424,7911 9504,7911 9585,7911 9665,7911 9745,7911 9826,7908 9906,7903 9982,7898 10062,7892 10133,7884 10208,7874 10284,7865 10355,7856 10426,7841 10492,7832 10563,7818 10629,7803 10690,7784 10756,7770 10818,7752 10874,7733 10931,7714 10988,7695 11040,7671 11092,7652 11139,7629 11186,7605 11233,7582 11276,7552 11319,7529 11356,7501 11390,7472 11422,7445 11455,7416 11484,7387 11508,7359 11531,7325 11555,7297 11574,7265 11588,7232 11602,7204 11611,7170 11622,7137 11626,7104 11630,7070 11630,7034 11626,7000 11622,6966 11611,6934 11602,6897 11593,6862 11574,6820 "
       transform="matrix(0.01729093,0,0,0.01729093,-110.99658,-21.288904)" />
    <polyline
       id="polyline168"
       style="fill:none;stroke:#000000;stroke-width:8;stroke-linecap:butt;stroke-linejoin:round"
       points="8975,4010 8928,4152 "
       transform="matrix(0.01729093,0,0,0.01729093,-110.99658,-21.288904)" />
    <polyline
       id="polyline180"
       style="fill:none;stroke:#000000;stroke-width:9.1811161;stroke-linecap:butt;stroke-linejoin:round;stroke-miterlimit:4;stroke-dasharray:none"
       points="8635,5407 8645,5413 8659,5413 8668,5418 8682,5423 8697,5432 8711,5441 8720,5450 8734,5465 8748,5479 8763,5492 8782,5511 8796,5530 8810,5550 8824,5569 8838,5592 8857,5620 8871,5645 8886,5673 8900,5700 8919,5734 8933,5762 8948,5796 8966,5828 8980,5866 8999,5904 9013,5942 9027,5980 9046,6017 9060,6059 9075,6102 9093,6144 9108,6187 9122,6235 9137,6282 9150,6325 9169,6371 9183,6424 9197,6471 9211,6518 9226,6571 9240,6618 9249,6669 9264,6722 9278,6773 9292,6826 9301,6877 9315,6930 9325,6981 9339,7034 9348,7085 9358,7137 9367,7189 9377,7240 9386,7293 9396,7344 9405,7397 9415,7448 9424,7501 9429,7552 9438,7599 9443,7652 9448,7699 9453,7746 9457,7799 9462,7845 9467,7888 9471,7935 9476,7977 9476,8026 9476,8068 9481,8111 9481,8148 9481,8191 9481,8228 9481,8266 9481,8304 9481,8337 9476,8370 9476,8404 9471,8436 9467,8465 9467,8493 9462,8521 9457,8544 9448,8574 9443,8593 9438,8616 9429,8635 9424,8654 9415,8672 9411,8687 9400,8701 9391,8710 9382,8725 9372,8733 9363,8739 9353,8744 9339,8748 9330,8752 9315,8752 "
       transform="matrix(0.01729093,0,0,0.01729093,-110.99658,-21.288904)" />
    <polyline
       id="polyline182"
       style="fill:none;stroke:#000000;stroke-width:8;stroke-linecap:butt;stroke-linejoin:round"
       points="8975,4010 9022,4152 "
       transform="matrix(0.01729093,0,0,0.01729093,-110.99658,-21.288904)" />
    <polyline
       id="polyline184"
       style="fill:none;stroke:#000000;stroke-width:9.1811161;stroke-linecap:butt;stroke-linejoin:round;stroke-miterlimit:4;stroke-dasharray:none"
       points="6764,5913 6737,5937 6703,5966 6675,5993 6651,6017 6627,6046 6608,6074 6590,6102 6571,6131 6556,6163 6548,6193 6537,6221 6528,6254 6523,6282 6523,6314 6523,6348 6528,6376 6533,6410 6537,6443 6552,6476 6561,6503 6575,6537 6594,6571 6613,6603 6637,6637 6660,6665 6689,6698 6717,6730 6745,6759 6779,6792 6816,6826 6854,6854 6892,6887 6934,6915 6977,6943 7024,6977 7071,7004 7119,7034 7171,7062 7227,7085 7279,7113 7336,7142 7393,7166 7454,7193 7516,7217 7577,7240 7643,7265 7709,7289 7775,7308 7841,7331 7912,7350 7979,7369 8049,7387 8125,7406 8196,7421 8267,7440 8342,7454 8418,7467 8493,7482 8569,7496 8645,7506 8720,7514 8796,7525 8876,7533 8952,7544 9027,7548 9108,7558 9183,7563 9259,7563 9334,7567 9411,7567 9485,7571 9561,7571 9637,7567 9712,7567 9783,7563 9854,7558 9930,7552 10001,7548 10067,7539 10137,7533 10204,7525 10270,7514 10337,7501 10397,7491 10459,7478 10520,7463 10582,7448 10638,7435 10696,7416 10747,7397 10799,7378 10851,7359 10898,7340 10945,7321 10988,7297 11035,7278 11074,7255 11111,7232 11148,7208 11186,7180 11215,7155 11248,7132 11276,7104 11300,7076 11323,7047 11342,7019 11361,6991 11380,6962 11394,6934 11404,6900 11413,6873 11422,6845 11427,6811 11427,6777 11427,6750 11422,6717 11418,6684 11413,6656 11399,6623 11390,6588 11375,6556 11356,6528 11337,6495 11314,6461 11290,6429 11262,6395 11233,6367 11205,6333 11186,6314 "
       transform="matrix(0.01729093,0,0,0.01729093,-110.99658,-21.288904)" />
    <polyline
       id="polyline192"
       style="fill:none;stroke:#000000;stroke-width:9.1811161;stroke-linecap:butt;stroke-linejoin:round;stroke-miterlimit:4;stroke-dasharray:none"
       points="8139,5432 8167,5432 8196,5426 8224,5432 8253,5432 8281,5437 8309,5445 8342,5450 8375,5460 8404,5474 8437,5484 8470,5498 8508,5517 8541,5530 8574,5550 8611,5573 8645,5592 8682,5615 8716,5639 8753,5668 8791,5697 8829,5724 8862,5753 8900,5785 8937,5819 8975,5851 9013,5889 9051,5923 9084,5961 9122,5998 9159,6040 9197,6078 9230,6121 9268,6163 9306,6212 9339,6254 9377,6301 9411,6344 9443,6391 9476,6437 9509,6485 9542,6537 9575,6584 9608,6637 9637,6684 9670,6735 9698,6788 9727,6839 9755,6892 9783,6939 9811,6991 9835,7043 9859,7095 9887,7147 9906,7198 9930,7251 9953,7302 9972,7355 9991,7406 10010,7459 10029,7506 10043,7558 10057,7605 10071,7656 10085,7703 10100,7752 10109,7799 10119,7845 10128,7888 10137,7935 10142,7977 10148,8020 10152,8062 10156,8106 10156,8143 10156,8185 10156,8223 10156,8262 10152,8295 10148,8328 10142,8361 10137,8393 10128,8427 10119,8455 10109,8483 10100,8512 10085,8536 10076,8559 10062,8582 10043,8602 10029,8621 10010,8640 9991,8654 9972,8672 9953,8682 9930,8696 9911,8706 9887,8714 9863,8720 9835,8725 9811,8729 "
       transform="matrix(0.01729093,0,0,0.01729093,-110.99658,-21.288904)" />
    <polyline
       id="polyline194"
       style="fill:none;stroke:#000000;stroke-width:9.1811161;stroke-linecap:butt;stroke-linejoin:round;stroke-miterlimit:4;stroke-dasharray:none"
       points="7497,5560 7449,5573 7402,5588 7360,5607 7317,5620 7275,5639 7237,5658 7199,5677 7161,5697 7128,5715 7096,5739 7067,5758 7038,5781 7011,5804 6986,5828 6963,5851 6944,5876 6925,5900 6906,5923 6892,5947 6878,5974 6868,5998 6859,6027 6854,6055 6849,6078 6849,6108 6849,6136 6849,6159 6854,6187 6859,6216 6868,6245 6878,6272 6892,6301 6906,6329 6920,6358 6939,6382 6963,6410 6982,6437 7011,6467 7034,6495 7062,6522 7096,6546 7123,6575 7161,6603 7194,6626 7232,6656 7270,6679 7312,6703 7355,6730 7397,6754 7445,6777 7492,6802 7539,6826 7591,6845 7643,6868 7695,6892 7748,6911 7804,6930 7860,6953 7917,6972 7979,6991 8035,7004 8097,7023 8158,7038 8219,7057 8281,7070 8347,7085 8408,7100 8474,7108 8541,7123 8607,7132 8674,7147 8739,7155 8805,7161 8871,7170 8937,7174 9004,7185 9070,7189 9141,7193 9207,7198 9273,7198 9339,7204 9405,7204 9467,7204 9533,7204 9599,7198 9660,7198 9722,7193 9788,7189 9849,7185 9906,7180 9967,7170 10024,7166 10085,7155 10142,7147 10194,7137 10251,7123 10303,7113 10355,7100 10407,7085 10454,7070 10501,7057 10548,7043 10591,7023 10633,7009 10676,6991 10714,6972 10752,6953 10789,6934 10822,6915 10855,6892 10885,6873 10912,6849 10941,6826 10964,6802 10988,6777 11007,6754 11026,6730 11044,6708 11059,6684 11074,6656 11082,6632 11092,6603 11096,6580 11101,6552 11101,6522 11101,6495 11101,6471 11096,6443 11092,6414 11082,6386 11074,6358 11059,6329 11044,6301 11030,6272 11011,6248 10988,6221 10969,6193 10941,6163 10917,6136 10889,6108 10855,6083 10827,6055 10789,6027 10756,6004 10719,5974 10681,5951 10638,5928 10596,5900 10553,5876 10506,5851 10454,5828 "
       transform="matrix(0.01729093,0,0,0.01729093,-110.99658,-21.288904)" />
    <circle
       id="circle230"
       style="fill:#000000;stroke:#000000;stroke-width:0.13832742"
       r="0.81267363"
       cy="101.14816"
       cx="44.189495" />
    <circle
       id="circle232"
       style="fill:#000000;stroke:#666666;stroke-width:0.13832742"
       r="0.81267363"
       cy="111.48813"
       cx="88.644455" />
    <circle
       id="circle234"
       style="fill:#000000;stroke:#666666;stroke-width:0.13832742"
       r="0.81267363"
       cy="118.0068"
       cx="28.593079" />
    <circle
       id="circle236"
       style="fill:#000000;stroke:#666666;stroke-width:0.13832742"
       r="0.81267363"
       cy="79.863022"
       cx="44.189495" />
    <text
       style="font-style:normal;font-weight:normal;font-size:5.44664192px;line-height:0%;font-family:Times;text-anchor:start;fill:#000000;stroke:none;stroke-width:0.00043227in"
       id="text246"
       font-size="315"
       font-weight="normal"
       font-style="normal"
       y="104.70631"
       x="64.899452"
       xml:space="preserve"><tspan
         style="font-size:6.35000038px;stroke-width:0.00043227in"
         id="tspan8845">a</tspan><tspan
         style="font-size:3.54031754px;baseline-shift:sub;fill:#000000;stroke:none;stroke-width:0.00043227in"
         id="tspan8663">2</tspan></text>
    <text
       style="font-style:normal;font-weight:normal;font-size:5.44664192px;line-height:0%;font-family:Times;text-anchor:start;fill:#000000;stroke:none;stroke-width:0.00043227in"
       id="text248"
       font-size="315"
       font-weight="normal"
       font-style="normal"
       y="89.891762"
       x="44.569893"
       xml:space="preserve"><tspan
         style="font-size:6.35000038px;stroke-width:0.00043227in"
         id="tspan8841">c</tspan></text>
    <text
       style="font-style:normal;font-weight:normal;font-size:5.44664192px;line-height:0%;font-family:Times;text-anchor:start;fill:#000000;stroke:none;stroke-width:0.00043227in"
       id="text250"
       font-size="315"
       font-weight="normal"
       font-style="normal"
       y="110.07172"
       x="30.438417"
       xml:space="preserve"><tspan
         style="font-size:6.35000038px;stroke-width:0.00043227in"
         id="tspan8847">a</tspan><tspan
         style="font-size:3.54031754px;baseline-shift:sub;fill:#000000;stroke:none;stroke-width:0.00043227in"
         id="tspan8661">1</tspan></text>
  </g>
</svg>
